# Blender v2.82 (sub 7) OBJ File: ''
# www.blender.org
mtllib untitled17.mtl
o Cube_Cube.009
v -0.745044 0.299754 0.984860
v -0.985992 0.434541 0.892013
v -0.957026 0.105280 0.963687
v -0.793625 -0.004186 0.790382
v -0.986345 0.158194 0.607513
v -0.809093 -0.004217 0.582065
v -0.989770 0.439600 0.599281
v -0.584097 0.473084 0.984937
v -0.760639 0.468070 0.984861
v -0.610866 0.093919 0.972621
v -0.593287 -0.004218 0.574542
v -0.761183 0.683201 0.984852
v -0.985627 0.721177 0.892306
v -0.745412 0.846830 0.984826
v -0.957553 1.050585 0.962959
v -0.989694 0.716922 0.599499
v -0.985573 0.998799 0.607666
v -0.787243 1.147625 0.782877
v -0.802376 1.147643 0.579350
v -0.583443 0.677189 0.984937
v -0.583698 0.847168 0.984933
v -0.611952 1.054334 0.972576
v -0.594000 1.147644 0.786718
v -0.590261 1.147644 0.572536
v -0.808261 -0.004218 0.339657
v -0.986075 0.157683 0.309424
v -0.989624 0.439158 0.318679
v -0.792005 -0.004153 0.134831
v -0.942270 0.114884 -0.035685
v -0.982296 0.434598 0.025805
v -0.739062 0.303958 -0.052267
v -0.754807 0.470737 -0.052283
v -0.592473 -0.004218 0.348618
v -0.594855 -0.004188 0.136046
v -0.610515 0.096932 -0.043381
v -0.582114 0.299367 -0.052324
v -0.580772 0.475150 -0.052327
v -0.989752 0.717879 0.318225
v -0.985715 1.000106 0.308110
v -0.801414 1.147641 0.339818
v -0.982890 0.722695 0.024863
v -0.943944 1.042212 -0.035822
v -0.784374 1.147642 0.141718
v -0.755525 0.683070 -0.052282
v -0.739146 0.844164 -0.052270
v -0.589463 1.147644 0.348793
v -0.612161 1.052004 -0.043388
v -0.591517 1.147642 0.140603
v -0.580283 0.676745 -0.052327
v -0.580217 0.847085 -0.052323
v -0.585842 0.298105 0.984934
v -0.394722 0.473984 0.984933
v -0.376643 -0.004202 0.790456
v -0.359618 0.093329 0.971683
v -0.391490 0.298412 0.984928
v -0.382236 -0.004218 0.573527
v -0.238906 0.301045 0.984749
v -0.225102 0.470559 0.984770
v -0.185007 -0.004170 0.787460
v -0.024998 0.109173 0.957022
v 0.000139 0.435192 0.891541
v -0.171274 -0.004218 0.579637
v -0.000039 0.159563 0.606063
v 0.003465 0.440390 0.598439
v -0.394945 0.676562 0.984934
v -0.392181 0.847073 0.984928
v -0.357543 1.055165 0.971490
v -0.377271 1.147642 0.784954
v -0.383206 1.147644 0.571463
v -0.223983 0.681951 0.984770
v -0.236412 0.846730 0.984755
v 0.000741 0.721340 0.892069
v -0.022191 1.048311 0.956361
v -0.189573 1.147621 0.778301
v 0.003522 0.716896 0.598708
v -0.000547 0.998429 0.605819
v -0.177103 1.147641 0.576339
v -0.382194 -0.004218 0.349136
v -0.376460 -0.004192 0.137366
v -0.357996 0.096256 -0.042608
v -0.392236 0.299560 -0.052320
v -0.396056 0.475939 -0.052325
v -0.170953 -0.004216 0.340100
v 0.000233 0.159156 0.310077
v 0.003518 0.439977 0.318878
v -0.183227 -0.004157 0.136112
v -0.034858 0.117243 -0.032088
v -0.001429 0.435537 0.024723
v -0.242221 0.305770 -0.052217
v -0.229425 0.473245 -0.052222
v -0.383585 1.147644 0.349349
v -0.357068 1.052552 -0.042467
v -0.377993 1.147640 0.142005
v -0.396675 0.675960 -0.052325
v -0.393786 0.846778 -0.052319
v 0.003376 0.717976 0.318122
v -0.000823 1.000074 0.307984
v -0.178068 1.147643 0.340288
v -0.001825 0.723457 0.023298
v -0.036045 1.040000 -0.031275
v -0.190833 1.147599 0.144135
v -0.229389 0.681610 -0.052211
v -0.242261 0.843030 -0.052172
v -0.597218 -0.004203 0.791988
vt 0.375000 0.000000
vt 0.375000 0.000000
vt 0.375000 0.000000
vt 0.375000 0.000000
vt 0.375000 0.000000
vt 0.375000 0.000000
vt 0.375000 0.000000
vt 0.375000 0.000000
vt 0.375000 0.000000
vt 0.375000 0.000000
vt 0.375000 0.000000
vt 0.375000 0.000000
vt 0.375000 0.000000
vt 0.375000 0.000000
vt 0.375000 0.000000
vt 0.375000 0.000000
vt 0.375000 0.000000
vt 0.375000 0.000000
vt 0.375000 0.000000
vt 0.375000 0.000000
vt 0.375000 0.000000
vt 0.375000 0.000000
vt 0.375000 0.000000
vt 0.375000 0.000000
vt 0.375000 0.000000
vt 0.375000 0.000000
vt 0.375000 0.000000
vt 0.375000 0.000000
vt 0.375000 0.000000
vt 0.375000 0.000000
vt 0.375000 0.000000
vt 0.375000 0.000000
vt 0.375000 0.000000
vt 0.375000 0.000000
vt 0.375000 0.000000
vt 0.375000 0.000000
vt 0.375000 0.000000
vt 0.375000 0.000000
vt 0.375000 0.000000
vt 0.375000 0.000000
vt 0.375000 0.000000
vt 0.375000 0.000000
vt 0.375000 0.000000
vt 0.375000 0.000000
vt 0.375000 0.000000
vt 0.375000 0.000000
vt 0.375000 0.000000
vt 0.375000 0.000000
vt 0.375000 0.000000
vt 0.375000 0.000000
vt 0.375000 0.000000
vt 0.375000 0.000000
vt 0.375000 0.000000
vt 0.375000 0.000000
vt 0.375000 0.000000
vt 0.375000 0.000000
vt 0.375000 0.000000
vt 0.375000 0.000000
vt 0.375000 0.000000
vt 0.375000 0.000000
vt 0.375000 0.000000
vt 0.375000 0.000000
vt 0.375000 0.000000
vt 0.375000 0.000000
vt 0.375000 0.000000
vt 0.375000 0.000000
vt 0.375000 0.000000
vt 0.375000 0.000000
vt 0.375000 0.000000
vt 0.375000 0.000000
vt 0.375000 0.000000
vt 0.375000 0.000000
vt 0.375000 0.000000
vt 0.375000 0.000000
vt 0.375000 0.000000
vt 0.375000 0.000000
vt 0.375000 0.000000
vt 0.375000 0.000000
vt 0.375000 0.000000
vt 0.375000 0.000000
vt 0.375000 0.000000
vt 0.375000 0.000000
vt 0.375000 0.000000
vt 0.375000 0.000000
vt 0.375000 0.000000
vt 0.375000 0.000000
vt 0.375000 0.000000
vt 0.375000 0.000000
vt 0.375000 0.000000
vt 0.375000 0.000000
vt 0.375000 0.000000
vt 0.375000 0.000000
vt 0.375000 0.000000
vt 0.375000 0.000000
vt 0.375000 0.000000
vt 0.375000 0.000000
vt 0.375000 0.000000
vt 0.375000 0.000000
vt 0.375000 0.000000
vt 0.375000 0.000000
vt 0.375000 0.000000
vt 0.375000 0.000000
vt 0.375000 0.000000
vt 0.375000 0.000000
vn -0.2626 0.1831 0.9474
vn -0.6708 -0.7399 0.0499
vn -0.9998 -0.0118 0.0127
vn -0.9999 -0.0100 0.0127
vn -0.9999 0.0008 0.0134
vn -0.0004 -0.0000 1.0000
vn -0.0002 -0.0000 1.0000
vn -0.0413 -0.8619 0.5054
vn -0.0283 -0.0777 0.9966
vn -0.0000 -1.0000 0.0000
vn -0.0000 -1.0000 0.0001
vn -0.3811 -0.0007 0.9245
vn -0.3813 -0.0005 0.9245
vn -0.2702 -0.1798 0.9459
vn -0.9999 0.0003 0.0139
vn -0.9998 0.0142 0.0137
vn -0.9999 0.0139 -0.0012
vn -0.9998 0.0137 0.0135
vn -0.6256 0.7788 0.0466
vn -0.0005 0.0001 1.0000
vn -0.0006 0.0001 1.0000
vn -0.0003 0.0000 1.0000
vn -0.0286 0.0772 0.9966
vn -0.0090 0.8940 0.4480
vn -0.0079 0.8939 0.4481
vn 0.0020 0.8951 0.4458
vn -0.0001 1.0000 0.0000
vn -0.0000 1.0000 0.0000
vn -0.6756 -0.7372 -0.0021
vn -0.6745 -0.7382 -0.0008
vn -0.6733 -0.7394 0.0007
vn -0.9999 -0.0124 -0.0007
vn -1.0000 -0.0063 -0.0004
vn -0.9999 -0.0126 -0.0009
vn -0.6319 -0.7749 0.0159
vn -0.9884 -0.1020 -0.1128
vn -0.3202 -0.0303 -0.9469
vn 0.0000 -1.0000 -0.0002
vn -0.0000 -1.0000 -0.0001
vn -0.0001 -1.0000 -0.0002
vn -0.0001 -1.0000 -0.0001
vn -0.0580 -0.8419 -0.5366
vn 0.0005 -0.0452 -0.9990
vn -0.0016 -0.0439 -0.9990
vn -0.0007 -0.0440 -0.9990
vn -0.0001 -0.0000 -1.0000
vn -0.0003 -0.0001 -1.0000
vn -1.0000 -0.0001 -0.0002
vn -1.0000 -0.0005 0.0002
vn -0.9999 0.0145 0.0004
vn -0.9999 0.0143 0.0005
vn -0.6281 0.7781 0.0006
vn -0.6304 0.7762 -0.0021
vn -0.6253 0.7804 0.0037
vn -0.9997 -0.0049 -0.0244
vn -0.9997 -0.0013 -0.0242
vn -0.9997 -0.0021 -0.0234
vn -0.9891 0.1001 -0.1079
vn -0.5743 0.8181 0.0304
vn -0.3231 -0.0025 -0.9464
vn -0.3245 -0.0013 -0.9459
vn -0.3245 -0.0011 -0.9459
vn -0.3161 0.0322 -0.9482
vn -0.0023 0.8874 -0.4611
vn -0.0027 0.8874 -0.4610
vn 0.0020 0.8884 -0.4592
vn -0.0003 0.0001 -1.0000
vn -0.0002 0.0000 -1.0000
vn -0.0011 0.0434 -0.9991
vn 0.0009 0.0448 -0.9990
vn -0.0005 0.0435 -0.9991
vn 0.0005 -0.0000 1.0000
vn -0.0003 -0.8793 0.4762
vn 0.0010 -0.8793 0.4764
vn 0.0065 -0.8809 0.4733
vn 0.0012 -0.0610 0.9981
vn 0.0009 -0.0615 0.9981
vn 0.0027 -0.0641 0.9979
vn 0.0001 -1.0000 0.0001
vn 0.0011 -0.0001 1.0000
vn 0.0010 -0.0001 1.0000
vn 0.0630 -0.8562 0.5128
vn 0.0479 -0.0904 0.9948
vn 0.2743 0.1690 0.9467
vn 0.6868 -0.7254 0.0456
vn 0.9999 -0.0122 0.0111
vn 0.9999 -0.0124 -0.0007
vn 0.9998 -0.0136 0.0108
vn 0.0006 0.0000 1.0000
vn 0.0012 0.0610 0.9981
vn 0.0018 0.0602 0.9982
vn 0.0017 0.0642 0.9979
vn 0.0014 0.8949 0.4462
vn 0.0036 0.8961 0.4439
vn 0.0001 1.0000 0.0000
vn 0.0010 0.0001 1.0000
vn 0.3819 -0.0023 0.9242
vn 0.3817 -0.0025 0.9243
vn 0.2815 -0.1661 0.9451
vn 0.0467 0.0905 0.9948
vn 0.0158 0.8965 0.4428
vn 1.0000 -0.0005 0.0052
vn 0.9999 -0.0012 0.0104
vn 1.0000 -0.0002 0.0058
vn 0.9999 0.0155 -0.0018
vn 0.9999 0.0142 0.0093
vn 0.9999 0.0143 0.0043
vn 0.6411 0.7664 0.0397
vn 0.0001 1.0000 0.0001
vn 0.0000 1.0000 0.0001
vn 0.0018 -0.8719 -0.4898
vn 0.0017 -0.8717 -0.4900
vn -0.0027 -0.8731 -0.4875
vn 0.0009 -0.0450 -0.9990
vn 0.0003 -0.0000 -1.0000
vn 0.6908 -0.7230 0.0013
vn 0.6906 -0.7233 0.0016
vn 0.9999 -0.0121 0.0006
vn 0.9999 -0.0117 0.0009
vn 0.0002 -1.0000 -0.0003
vn 0.6507 -0.7589 0.0262
vn 0.0720 -0.8378 -0.5412
vn 0.9920 -0.0879 -0.0910
vn 0.0026 -0.0473 -0.9989
vn 0.0028 -0.0472 -0.9989
vn 0.3161 -0.0242 -0.9484
vn 0.0007 -0.0000 -1.0000
vn 0.0006 -0.0000 -1.0000
vn 0.0028 0.8885 -0.4589
vn 0.0041 0.8890 -0.4578
vn 0.0004 0.0001 -1.0000
vn 0.0005 0.0000 -1.0000
vn 0.0011 0.0444 -0.9990
vn 1.0000 0.0002 -0.0002
vn 1.0000 0.0005 -0.0005
vn 0.9999 0.0147 -0.0007
vn 0.9999 0.0149 -0.0008
vn 0.6452 0.7640 -0.0023
vn 0.6430 0.7659 0.0005
vn 0.6402 0.7682 0.0036
vn 0.0000 1.0000 -0.0001
vn 0.9999 0.0007 -0.0173
vn 0.9998 -0.0031 -0.0170
vn 0.9998 0.0125 -0.0174
vn 0.9915 0.0913 -0.0922
vn 0.5952 0.8029 0.0327
vn 0.0054 0.8891 -0.4577
vn 0.0001 1.0000 -0.0001
vn 0.3196 -0.0003 -0.9476
vn 0.3197 -0.0003 -0.9475
vn 0.3198 -0.0000 -0.9475
vn 0.0007 0.0002 -1.0000
vn 0.3107 0.0250 -0.9502
vn 0.0008 0.0002 -1.0000
vn 0.0023 0.0473 -0.9989
vn 0.0021 0.0474 -0.9989
vn -0.3763 -0.0349 0.9259
vn -0.6042 -0.7939 -0.0682
vn -0.9949 -0.0720 0.0712
vn -0.0040 -0.8788 0.4771
vn -0.0038 -0.8788 0.4772
vn -0.0004 -0.0601 0.9982
vn -0.0011 -0.0601 0.9982
vn -0.3808 -0.0009 0.9246
vn -0.3757 0.0364 0.9260
vn -0.9952 0.0702 0.0683
vn -0.5539 0.8290 -0.0771
vn -0.0008 0.0594 0.9982
vn -0.0003 0.0595 0.9982
vn -0.0224 0.8888 0.4578
vn -0.6757 -0.7371 -0.0023
vn -1.0000 -0.0060 -0.0005
vn -0.6673 -0.7429 -0.0532
vn -0.9996 -0.0118 -0.0248
vn -0.9996 -0.0116 -0.0241
vn -0.2244 0.1569 -0.9618
vn 0.0029 -0.8711 -0.4912
vn -0.0264 -0.0592 -0.9979
vn -0.6308 0.7759 -0.0025
vn -0.9996 0.0135 -0.0232
vn -0.6185 0.7840 -0.0532
vn -0.3219 -0.0038 -0.9468
vn -0.2270 -0.1549 -0.9615
vn -0.0369 0.8734 -0.4856
vn -0.0245 0.0576 -0.9980
vn 0.0075 -0.8808 0.4733
vn 0.0023 -0.0641 0.9979
vn 0.3781 -0.0309 0.9252
vn 0.6234 -0.7790 -0.0675
vn 0.9960 -0.0644 0.0616
vn 0.3822 -0.0020 0.9241
vn 0.3769 0.0285 0.9258
vn 0.0012 0.0642 0.9979
vn 0.0388 0.8878 0.4586
vn 1.0000 -0.0021 0.0095
vn 0.9968 0.0595 0.0531
vn 0.5709 0.8170 -0.0810
vn 0.0004 -0.0000 -1.0000
vn 0.6911 -0.7227 0.0009
vn 0.6860 -0.7264 -0.0415
vn -0.0030 -0.8731 -0.4876
vn 0.9998 -0.0108 -0.0149
vn 0.9998 -0.0112 -0.0166
vn 0.0368 -0.0660 -0.9971
vn 0.2278 0.1478 -0.9624
vn 0.6457 0.7636 -0.0026
vn 0.9997 0.0143 -0.0174
vn 0.6348 0.7716 -0.0415
vn 0.0511 0.8708 -0.4890
vn 0.3156 -0.0043 -0.9489
vn 0.2321 -0.1408 -0.9625
vn 0.0374 0.0667 -0.9971
usemtl None.014
s 1
f 1/1/1 2/2/1 3/3/1
f 4/4/2 5/5/2 6/6/2
f 5/5/3 2/2/4 7/7/5
f 1/1/6 8/8/7 9/9/6
f 4/4/8 10/10/8 3/3/8
f 10/10/9 1/1/9 3/3/9
f 11/11/10 4/4/11 6/6/11
f 2/2/12 12/12/12 13/13/13
f 13/13/14 14/14/14 15/15/14
f 7/7/5 13/13/5 16/16/15
f 13/13/16 17/17/17 16/16/18
f 17/17/19 18/18/19 19/19/19
f 9/9/6 20/20/7 12/12/20
f 14/14/21 20/20/7 21/21/22
f 14/14/23 22/22/23 15/15/23
f 18/18/24 22/22/25 23/23/26
f 18/18/27 24/24/28 19/19/28
f 25/25/29 5/5/30 26/26/31
f 5/5/32 27/27/33 26/26/34
f 28/28/35 26/26/35 29/29/35
f 26/26/36 30/30/36 29/29/36
f 31/31/37 30/30/37 32/32/37
f 11/11/10 25/25/38 33/33/39
f 33/33/39 28/28/40 34/34/41
f 35/35/42 28/28/42 29/29/42
f 35/35/43 31/31/44 36/36/45
f 37/37/46 31/31/47 32/32/47
f 27/27/33 16/16/48 38/38/49
f 38/38/50 17/17/17 39/39/51
f 17/17/52 40/40/53 39/39/54
f 30/30/55 38/38/56 41/41/57
f 41/41/58 39/39/58 42/42/58
f 39/39/59 43/43/59 42/42/59
f 30/30/60 44/44/61 32/32/62
f 41/41/63 45/45/63 44/44/63
f 19/19/28 46/46/28 40/40/28
f 47/47/64 43/43/65 48/48/66
f 43/43/28 46/46/28 48/48/28
f 49/49/46 32/32/47 44/44/67
f 49/49/46 45/45/67 50/50/68
f 45/45/69 47/47/70 50/50/71
f 51/51/7 52/52/72 8/8/7
f 10/10/73 53/53/74 54/54/75
f 55/55/76 10/10/77 54/54/78
f 53/53/79 11/11/10 56/56/11
f 52/52/72 57/57/80 58/58/81
f 54/54/82 59/59/82 60/60/82
f 57/57/83 54/54/83 60/60/83
f 61/61/84 57/57/84 60/60/84
f 59/59/79 56/56/11 62/62/11
f 63/63/85 59/59/85 62/62/85
f 61/61/86 63/63/87 64/64/88
f 20/20/7 52/52/72 65/65/72
f 21/21/22 65/65/72 66/66/89
f 22/22/90 66/66/91 67/67/92
f 23/23/26 67/67/93 68/68/94
f 24/24/28 68/68/95 69/69/28
f 65/65/72 58/58/81 70/70/96
f 65/65/72 71/71/96 66/66/89
f 70/70/97 61/61/97 72/72/98
f 71/71/99 72/72/99 73/73/99
f 67/67/100 71/71/100 73/73/100
f 67/67/101 74/74/101 68/68/101
f 75/75/102 61/61/103 64/64/104
f 76/76/105 72/72/106 75/75/107
f 74/74/108 76/76/108 77/77/108
f 69/69/28 74/74/109 77/77/110
f 56/56/11 33/33/39 78/78/39
f 78/78/39 34/34/41 79/79/38
f 79/79/111 35/35/112 80/80/113
f 81/81/114 35/35/43 36/36/45
f 82/82/115 36/36/68 37/37/46
f 62/62/11 78/78/39 83/83/39
f 63/63/116 83/83/116 84/84/117
f 85/85/118 63/63/87 84/84/119
f 83/83/39 79/79/38 86/86/120
f 84/84/121 86/86/121 87/87/121
f 86/86/122 80/80/122 87/87/122
f 88/88/123 84/84/123 87/87/123
f 89/89/124 80/80/125 81/81/114
f 88/88/126 89/89/126 90/90/126
f 89/89/127 82/82/115 90/90/128
f 46/46/28 69/69/28 91/91/28
f 92/92/129 48/48/66 93/93/130
f 48/48/28 91/91/28 93/93/95
f 94/94/131 37/37/46 49/49/46
f 94/94/131 50/50/68 95/95/132
f 47/47/70 95/95/133 50/50/71
f 75/75/102 85/85/134 96/96/135
f 76/76/105 96/96/136 97/97/137
f 98/98/138 76/76/139 97/97/140
f 91/91/28 77/77/110 98/98/141
f 96/96/142 88/88/143 99/99/144
f 97/97/145 99/99/145 100/100/145
f 101/101/146 97/97/146 100/100/146
f 101/101/147 92/92/129 93/93/130
f 91/91/28 101/101/148 93/93/95
f 102/102/149 88/88/150 90/90/151
f 90/90/128 94/94/131 102/102/152
f 103/103/153 99/99/153 102/102/153
f 103/103/154 94/94/131 95/95/132
f 92/92/155 103/103/156 95/95/133
f 1/1/157 9/9/157 2/2/157
f 4/4/158 3/3/158 5/5/158
f 5/5/159 3/3/159 2/2/159
f 1/1/6 51/51/7 8/8/7
f 4/4/160 104/104/161 10/10/73
f 10/10/77 51/51/162 1/1/163
f 11/11/10 104/104/11 4/4/11
f 2/2/12 9/9/164 12/12/12
f 13/13/165 12/12/165 14/14/165
f 7/7/5 2/2/4 13/13/5
f 13/13/166 15/15/166 17/17/166
f 17/17/167 15/15/167 18/18/167
f 9/9/6 8/8/7 20/20/7
f 14/14/21 12/12/20 20/20/7
f 14/14/168 21/21/169 22/22/90
f 18/18/170 15/15/170 22/22/170
f 18/18/27 23/23/28 24/24/28
f 25/25/29 6/6/171 5/5/30
f 5/5/32 7/7/172 27/27/33
f 28/28/173 25/25/173 26/26/173
f 26/26/174 27/27/175 30/30/55
f 31/31/176 29/29/176 30/30/176
f 11/11/10 6/6/11 25/25/38
f 33/33/39 25/25/38 28/28/40
f 35/35/112 34/34/177 28/28/177
f 35/35/178 29/29/178 31/31/178
f 37/37/46 36/36/68 31/31/47
f 27/27/33 7/7/172 16/16/48
f 38/38/50 16/16/18 17/17/17
f 17/17/52 19/19/179 40/40/53
f 30/30/55 27/27/175 38/38/56
f 41/41/180 38/38/180 39/39/180
f 39/39/181 40/40/181 43/43/181
f 30/30/60 41/41/182 44/44/61
f 41/41/183 42/42/183 45/45/183
f 19/19/28 24/24/28 46/46/28
f 47/47/184 42/42/184 43/43/184
f 43/43/28 40/40/28 46/46/28
f 49/49/46 37/37/46 32/32/47
f 49/49/46 44/44/67 45/45/67
f 45/45/185 42/42/185 47/47/185
f 51/51/7 55/55/89 52/52/72
f 10/10/73 104/104/161 53/53/74
f 55/55/76 51/51/162 10/10/77
f 53/53/79 104/104/11 11/11/10
f 52/52/72 55/55/89 57/57/80
f 54/54/75 53/53/74 59/59/186
f 57/57/187 55/55/76 54/54/78
f 61/61/188 58/58/188 57/57/188
f 59/59/79 53/53/79 56/56/11
f 63/63/189 60/60/189 59/59/189
f 61/61/190 60/60/190 63/63/190
f 20/20/7 8/8/7 52/52/72
f 21/21/22 20/20/7 65/65/72
f 22/22/90 21/21/169 66/66/91
f 23/23/26 22/22/25 67/67/93
f 24/24/28 23/23/28 68/68/95
f 65/65/72 52/52/72 58/58/81
f 65/65/72 70/70/96 71/71/96
f 70/70/97 58/58/191 61/61/97
f 71/71/192 70/70/192 72/72/192
f 67/67/92 66/66/91 71/71/193
f 67/67/194 73/73/194 74/74/194
f 75/75/102 72/72/195 61/61/103
f 76/76/196 73/73/196 72/72/196
f 74/74/197 73/73/197 76/76/197
f 69/69/28 68/68/95 74/74/109
f 56/56/11 11/11/10 33/33/39
f 78/78/39 33/33/39 34/34/41
f 79/79/111 34/34/177 35/35/112
f 81/81/114 80/80/125 35/35/43
f 82/82/115 81/81/198 36/36/68
f 62/62/11 56/56/11 78/78/39
f 63/63/116 62/62/199 83/83/116
f 85/85/118 64/64/88 63/63/87
f 83/83/39 78/78/39 79/79/38
f 84/84/200 83/83/200 86/86/200
f 86/86/201 79/79/111 80/80/113
f 88/88/143 85/85/202 84/84/203
f 89/89/204 87/87/204 80/80/204
f 88/88/205 87/87/205 89/89/205
f 89/89/127 81/81/198 82/82/115
f 46/46/28 24/24/28 69/69/28
f 92/92/129 47/47/64 48/48/66
f 48/48/28 46/46/28 91/91/28
f 94/94/131 82/82/115 37/37/46
f 94/94/131 49/49/46 50/50/68
f 47/47/70 92/92/155 95/95/133
f 75/75/102 64/64/104 85/85/134
f 76/76/105 75/75/107 96/96/136
f 98/98/138 77/77/206 76/76/139
f 91/91/28 69/69/28 77/77/110
f 96/96/142 85/85/202 88/88/143
f 97/97/207 96/96/142 99/99/144
f 101/101/208 98/98/208 97/97/208
f 101/101/209 100/100/209 92/92/209
f 91/91/28 98/98/141 101/101/148
f 102/102/149 99/99/210 88/88/150
f 90/90/128 82/82/115 94/94/131
f 103/103/211 100/100/211 99/99/211
f 103/103/154 102/102/152 94/94/131
f 92/92/212 100/100/212 103/103/212
