# Blender v2.82 (sub 7) OBJ File: ''
# www.blender.org
mtllib untitled11.mtl
o Cube_Cube.005
v -0.930905 -0.004218 -0.260728
v -0.984855 0.314820 -0.589946
v -0.935310 -0.004218 -0.579841
v -0.936836 -0.004218 -0.944387
v -0.984795 0.317712 -0.948573
v -0.630578 0.295043 -0.077962
v -0.984804 0.294268 -0.199988
v -0.620197 -0.004218 -0.249205
v -0.605159 -0.004218 -0.599298
v -0.602497 -0.004218 -0.950463
v -0.984679 0.619210 -0.590909
v -0.905554 0.916528 -0.286549
v -0.916493 0.916528 -0.589060
v -0.984610 0.613593 -0.949181
v -0.921509 0.916528 -0.947640
v -0.630163 0.647211 -0.080005
v -0.984304 0.649534 -0.201072
v -0.612642 0.916528 -0.271685
v -0.600618 0.916528 -0.605356
v -0.598826 0.916528 -0.952433
v -0.937026 -0.004218 -1.329639
v -0.984789 0.317820 -1.326643
v -0.984851 0.315355 -1.686656
v -0.935454 -0.004218 -1.698537
v -0.930773 -0.004141 -2.020163
v -0.984879 0.296889 -2.079738
v -0.602382 -0.004218 -1.324843
v -0.604304 -0.004218 -1.675519
v -0.617571 -0.004218 -2.027721
v -0.627921 0.298210 -2.185098
v -0.984609 0.613384 -1.326753
v -0.921715 0.916528 -1.328923
v -0.984677 0.619554 -1.686346
v -0.915770 0.916528 -1.690881
v -0.984104 0.652751 -2.078722
v -0.899689 0.916528 -1.990086
v -0.598718 0.916528 -1.324363
v -0.599570 0.916528 -1.670230
v -0.627315 0.647925 -2.182464
v -0.608489 0.916528 -2.001333
v -0.288798 -0.004218 -0.251734
v -0.274114 0.295168 -0.080899
v -0.311032 -0.004218 -0.601187
v -0.315961 -0.004218 -0.951350
v 0.021622 -0.004218 -0.265669
v 0.048853 0.302440 -0.229217
v 0.017597 -0.004218 -0.585253
v 0.048875 0.318895 -0.597153
v 0.015074 -0.004218 -0.947134
v 0.048835 0.320897 -0.950947
v -0.272746 0.649095 -0.080428
v -0.293767 0.916528 -0.273997
v -0.313603 0.916528 -0.606898
v -0.318139 0.916528 -0.953202
v 0.048539 0.644149 -0.229864
v -0.006631 0.916528 -0.295489
v 0.048704 0.617542 -0.597735
v -0.002886 0.916528 -0.595476
v 0.048675 0.612142 -0.951440
v -0.001372 0.916528 -0.950727
v -0.316062 -0.004218 -1.324971
v -0.310928 -0.004218 -1.675102
v -0.287177 -0.004218 -2.027628
v -0.274574 0.298818 -2.182830
v 0.015285 -0.004218 -1.329830
v 0.048836 0.320982 -1.326472
v 0.018696 -0.004218 -1.697575
v 0.048885 0.319614 -1.682116
v 0.027098 -0.003522 -2.021752
v 0.048917 0.306696 -2.050317
v -0.318191 0.916528 -1.324540
v -0.313483 0.916528 -1.669695
v -0.272716 0.650150 -2.182051
v -0.293024 0.916528 -1.999701
v 0.048676 0.612016 -1.326640
v -0.001237 0.916528 -1.328924
v 0.048698 0.618096 -1.681856
v -0.002981 0.916528 -1.688170
v 0.048390 0.646827 -2.048430
v -0.007587 0.916528 -1.984289
vt 0.375000 0.000000
vt 0.375000 0.000000
vt 0.375000 0.000000
vt 0.375000 0.000000
vt 0.375000 0.000000
vt 0.375000 0.000000
vt 0.375000 0.000000
vt 0.375000 0.000000
vt 0.375000 0.000000
vt 0.375000 0.000000
vt 0.375000 0.000000
vt 0.375000 0.000000
vt 0.375000 0.000000
vt 0.375000 0.000000
vt 0.375000 0.000000
vt 0.375000 0.000000
vt 0.375000 0.000000
vt 0.375000 0.000000
vt 0.375000 0.000000
vt 0.375000 0.000000
vt 0.375000 0.000000
vt 0.375000 0.000000
vt 0.375000 0.000000
vt 0.375000 0.000000
vt 0.375000 0.000000
vt 0.375000 0.000000
vt 0.375000 0.000000
vt 0.375000 0.000000
vt 0.375000 0.000000
vt 0.375000 0.000000
vt 0.375000 0.000000
vt 0.375000 0.000000
vt 0.375000 0.000000
vt 0.375000 0.000000
vt 0.375000 0.000000
vt 0.375000 0.000000
vt 0.375000 0.000000
vt 0.375000 0.000000
vt 0.375000 0.000000
vt 0.375000 0.000000
vt 0.375000 0.000000
vt 0.375000 0.000000
vt 0.375000 0.000000
vt 0.375000 0.000000
vt 0.375000 0.000000
vt 0.375000 0.000000
vt 0.375000 0.000000
vt 0.375000 0.000000
vt 0.375000 0.000000
vt 0.375000 0.000000
vt 0.375000 0.000000
vt 0.375000 0.000000
vt 0.375000 0.000000
vt 0.375000 0.000000
vt 0.375000 0.000000
vt 0.375000 0.000000
vt 0.375000 0.000000
vt 0.375000 0.000000
vt 0.375000 0.000000
vt 0.375000 0.000000
vt 0.375000 0.000000
vt 0.375000 0.000000
vt 0.375000 0.000000
vt 0.375000 0.000000
vt 0.375000 0.000000
vt 0.375000 0.000000
vt 0.375000 0.000000
vt 0.375000 0.000000
vt 0.375000 0.000000
vt 0.375000 0.000000
vt 0.375000 0.000000
vt 0.375000 0.000000
vt 0.375000 0.000000
vt 0.375000 0.000000
vt 0.375000 0.000000
vt 0.375000 0.000000
vt 0.375000 0.000000
vt 0.375000 0.000000
vt 0.375000 0.000000
vt 0.375000 0.000000
vn -0.9881 -0.1530 0.0136
vn -0.9894 -0.1449 0.0038
vn -0.9883 -0.1525 0.0043
vn -0.9884 -0.1522 0.0021
vn -0.9891 -0.1469 0.0003
vn -0.3154 -0.2436 0.9172
vn -0.0000 -1.0000 -0.0000
vn -1.0000 0.0011 0.0006
vn -1.0000 0.0008 0.0002
vn -1.0000 0.0006 -0.0000
vn -0.9741 0.2232 0.0352
vn -1.0000 0.0006 -0.0001
vn -0.9790 0.2039 -0.0034
vn -0.9792 0.2031 0.0004
vn -0.9790 0.2039 -0.0017
vn -0.3245 0.0046 0.9459
vn -0.3246 0.0046 0.9458
vn -0.3235 0.0033 0.9462
vn -0.0412 0.5811 0.8128
vn 0.0000 1.0000 0.0000
vn -0.9890 -0.1482 -0.0006
vn -0.9892 -0.1467 0.0006
vn -0.9891 -0.1470 0.0010
vn -0.9883 -0.1526 -0.0042
vn -0.9845 -0.1753 0.0083
vn -0.0001 -1.0000 -0.0001
vn -0.0003 -1.0000 -0.0002
vn -0.2744 -0.2339 -0.9327
vn -1.0000 0.0006 0.0001
vn -0.9790 0.2037 0.0002
vn -0.9791 0.2033 0.0033
vn -1.0000 0.0016 -0.0008
vn -0.9741 0.2258 -0.0160
vn -1.0000 0.0022 -0.0013
vn -0.9544 0.2975 0.0238
vn -0.2812 0.0056 -0.9596
vn -0.2811 0.0054 -0.9597
vn -0.2792 0.0033 -0.9602
vn -0.0320 0.5604 -0.8276
vn 0.0070 -0.4962 0.8682
vn 0.0073 -0.4959 0.8684
vn 0.4157 -0.1437 0.8981
vn 0.9946 -0.1040 -0.0044
vn 0.9952 -0.0968 -0.0125
vn 0.9953 -0.0966 -0.0070
vn 0.9951 -0.0988 -0.0051
vn 0.9947 -0.1029 0.0002
vn 0.0047 0.0022 1.0000
vn 0.0012 -0.0013 1.0000
vn 0.0061 0.5800 0.8146
vn 0.0059 0.5799 0.8147
vn 0.0059 0.5796 0.8149
vn 0.4195 -0.0004 0.9077
vn 0.4196 -0.0004 0.9077
vn 0.4218 0.0021 0.9067
vn 0.0604 0.5884 0.8063
vn 1.0000 0.0007 0.0001
vn 1.0000 0.0008 0.0003
vn 1.0000 0.0006 -0.0000
vn 0.9854 0.1699 0.0123
vn 0.9854 0.1696 0.0121
vn 0.9854 0.1700 0.0083
vn 1.0000 0.0005 -0.0001
vn 0.9868 0.1621 -0.0008
vn 0.9867 0.1622 -0.0026
vn 0.9867 0.1622 -0.0013
vn 0.0017 -1.0000 -0.0015
vn 0.0080 -0.4562 -0.8898
vn 0.0065 -0.4561 -0.8899
vn 0.0160 -0.4565 -0.8896
vn 0.9953 -0.0970 0.0068
vn 0.9947 -0.1026 0.0003
vn 0.9948 -0.1021 0.0007
vn 0.9956 -0.0933 0.0092
vn 0.0023 -1.0000 -0.0021
vn 0.9975 -0.0699 0.0025
vn 0.3790 -0.1113 -0.9187
vn 0.0038 0.0048 -1.0000
vn 0.0038 0.0049 -1.0000
vn 0.0012 0.0022 -1.0000
vn 0.0008 0.5621 -0.8271
vn 0.0043 0.5647 -0.8253
vn 0.0043 0.5651 -0.8250
vn 1.0000 0.0005 0.0001
vn 1.0000 0.0006 0.0001
vn 0.9868 0.1621 0.0002
vn 0.9857 0.1686 -0.0022
vn 1.0000 0.0009 -0.0001
vn 0.9868 0.1621 0.0023
vn 0.9853 0.1705 -0.0048
vn 1.0000 0.0011 -0.0004
vn 1.0000 0.0016 -0.0007
vn 0.3816 0.0029 -0.9243
vn 0.3816 0.0028 -0.9243
vn 0.3842 0.0057 -0.9232
vn 0.9797 0.1998 0.0148
vn 0.0444 0.5666 -0.8228
vn -0.9844 -0.1759 -0.0091
vn -0.0322 -0.4972 0.8670
vn -1.0000 0.0014 0.0009
vn -0.9607 0.2768 -0.0206
vn -0.9746 0.2234 0.0136
vn -0.3257 0.0059 0.9455
vn -0.2984 0.3697 0.8799
vn -0.9882 -0.1522 -0.0144
vn -0.0215 -0.4621 -0.8866
vn -0.9791 0.2032 0.0037
vn -0.9730 0.2250 -0.0523
vn -0.2831 0.0077 -0.9591
vn -0.2535 0.3800 -0.8896
vn 0.0066 -0.4965 0.8680
vn 0.0389 -0.4967 0.8671
vn 0.9961 -0.0880 -0.0039
vn 0.0082 0.0058 0.9999
vn -0.0021 0.5862 0.8101
vn 0.4174 -0.0028 0.9087
vn 0.4072 0.2911 0.8657
vn 1.0000 0.0009 0.0004
vn 0.9806 0.1953 -0.0137
vn 0.9854 0.1700 0.0042
vn 0.0003 -0.4616 -0.8871
vn 0.9952 -0.0940 0.0256
vn 0.0176 -0.4564 -0.8896
vn 0.0064 0.0075 -1.0000
vn -0.0025 0.5592 -0.8290
vn 0.3791 0.0000 -0.9254
vn 0.9853 0.1703 -0.0153
vn 0.3706 0.2870 -0.8834
usemtl None.008
s 1
f 1/1/1 2/2/2 3/3/3
f 4/4/4 2/2/2 5/5/5
f 1/1/6 6/6/6 7/7/6
f 8/8/7 3/3/7 9/9/7
f 9/9/7 4/4/7 10/10/7
f 7/7/8 11/11/9 2/2/10
f 11/11/11 12/12/11 13/13/11
f 2/2/10 14/14/12 5/5/12
f 11/11/13 15/15/14 14/14/15
f 7/7/16 16/16/17 17/17/18
f 12/12/19 16/16/19 18/18/19
f 13/13/20 18/18/20 19/19/20
f 15/15/20 19/19/20 20/20/20
f 21/21/21 5/5/5 22/22/22
f 21/21/21 23/23/23 24/24/24
f 25/25/25 23/23/25 26/26/25
f 10/10/7 21/21/7 27/27/7
f 28/28/7 21/21/7 24/24/26
f 29/29/26 24/24/26 25/25/27
f 30/30/28 25/25/28 26/26/28
f 22/22/29 14/14/12 31/31/29
f 31/31/30 15/15/14 32/32/31
f 23/23/29 31/31/29 33/33/32
f 33/33/33 32/32/33 34/34/33
f 26/26/12 33/33/32 35/35/34
f 33/33/35 36/36/35 35/35/35
f 32/32/20 20/20/20 37/37/20
f 32/32/20 38/38/20 34/34/20
f 39/39/36 26/26/37 35/35/38
f 39/39/39 36/36/39 40/40/39
f 36/36/20 38/38/20 40/40/20
f 6/6/40 41/41/40 42/42/41
f 43/43/7 8/8/7 9/9/7
f 43/43/7 10/10/7 44/44/7
f 42/42/42 45/45/42 46/46/42
f 47/47/7 41/41/7 43/43/7
f 48/48/43 45/45/44 47/47/45
f 49/49/7 43/43/7 44/44/7
f 48/48/43 49/49/46 50/50/47
f 16/16/48 42/42/48 51/51/49
f 16/16/50 52/52/51 18/18/52
f 18/18/20 53/53/20 19/19/20
f 20/20/20 53/53/20 54/54/20
f 51/51/53 46/46/54 55/55/55
f 51/51/56 56/56/56 52/52/56
f 57/57/57 46/46/58 48/48/59
f 56/56/60 57/57/61 58/58/62
f 52/52/20 58/58/20 53/53/20
f 59/59/59 48/48/59 50/50/63
f 60/60/64 57/57/65 59/59/66
f 53/53/20 60/60/20 54/54/20
f 44/44/7 27/27/7 61/61/7
f 61/61/7 28/28/7 62/62/7
f 62/62/7 29/29/26 63/63/67
f 63/63/68 30/30/69 64/64/70
f 49/49/7 61/61/7 65/65/7
f 50/50/47 65/65/71 66/66/72
f 65/65/7 62/62/7 67/67/67
f 68/68/73 65/65/71 67/67/74
f 67/67/67 63/63/67 69/69/75
f 68/68/76 69/69/76 70/70/76
f 69/69/77 64/64/77 70/70/77
f 37/37/20 54/54/20 71/71/20
f 38/38/20 71/71/20 72/72/20
f 64/64/78 39/39/79 73/73/80
f 73/73/81 40/40/82 74/74/83
f 40/40/20 72/72/20 74/74/20
f 59/59/59 66/66/84 75/75/85
f 60/60/64 75/75/86 76/76/87
f 71/71/20 60/60/20 76/76/20
f 75/75/85 68/68/85 77/77/88
f 76/76/87 77/77/89 78/78/90
f 72/72/20 76/76/20 78/78/20
f 77/77/88 70/70/91 79/79/92
f 70/70/93 73/73/94 79/79/95
f 80/80/96 77/77/96 79/79/96
f 80/80/97 73/73/97 74/74/97
f 74/74/20 78/78/20 80/80/20
f 1/1/98 7/7/98 2/2/98
f 4/4/4 3/3/3 2/2/2
f 1/1/99 8/8/99 6/6/99
f 8/8/7 1/1/7 3/3/7
f 9/9/7 3/3/7 4/4/7
f 7/7/8 17/17/100 11/11/9
f 11/11/101 17/17/101 12/12/101
f 2/2/10 11/11/9 14/14/12
f 11/11/102 13/13/102 15/15/102
f 7/7/16 6/6/103 16/16/17
f 12/12/104 17/17/104 16/16/104
f 13/13/20 12/12/20 18/18/20
f 15/15/20 13/13/20 19/19/20
f 21/21/21 4/4/4 5/5/5
f 21/21/21 22/22/22 23/23/23
f 25/25/105 24/24/105 23/23/105
f 10/10/7 4/4/7 21/21/7
f 28/28/7 27/27/7 21/21/7
f 29/29/26 28/28/7 24/24/26
f 30/30/106 29/29/106 25/25/106
f 22/22/29 5/5/12 14/14/12
f 31/31/30 14/14/15 15/15/14
f 23/23/29 22/22/29 31/31/29
f 33/33/107 31/31/30 32/32/31
f 26/26/12 23/23/29 33/33/32
f 33/33/108 34/34/108 36/36/108
f 32/32/20 15/15/20 20/20/20
f 32/32/20 37/37/20 38/38/20
f 39/39/36 30/30/109 26/26/37
f 39/39/110 35/35/110 36/36/110
f 36/36/20 34/34/20 38/38/20
f 6/6/40 8/8/111 41/41/40
f 43/43/7 41/41/7 8/8/7
f 43/43/7 9/9/7 10/10/7
f 42/42/112 41/41/112 45/45/112
f 47/47/7 45/45/7 41/41/7
f 48/48/113 46/46/113 45/45/113
f 49/49/7 47/47/7 43/43/7
f 48/48/43 47/47/45 49/49/46
f 16/16/48 6/6/114 42/42/48
f 16/16/50 51/51/115 52/52/51
f 18/18/20 52/52/20 53/53/20
f 20/20/20 19/19/20 53/53/20
f 51/51/53 42/42/116 46/46/54
f 51/51/117 55/55/117 56/56/117
f 57/57/57 55/55/118 46/46/58
f 56/56/119 55/55/119 57/57/119
f 52/52/20 56/56/20 58/58/20
f 59/59/59 57/57/57 48/48/59
f 60/60/120 58/58/62 57/57/61
f 53/53/20 58/58/20 60/60/20
f 44/44/7 10/10/7 27/27/7
f 61/61/7 27/27/7 28/28/7
f 62/62/7 28/28/7 29/29/26
f 63/63/121 29/29/121 30/30/121
f 49/49/7 44/44/7 61/61/7
f 50/50/47 49/49/46 65/65/71
f 65/65/7 61/61/7 62/62/7
f 68/68/73 66/66/72 65/65/71
f 67/67/67 62/62/7 63/63/67
f 68/68/122 67/67/122 69/69/122
f 69/69/123 63/63/68 64/64/70
f 37/37/20 20/20/20 54/54/20
f 38/38/20 37/37/20 71/71/20
f 64/64/78 30/30/124 39/39/79
f 73/73/81 39/39/125 40/40/82
f 40/40/20 38/38/20 72/72/20
f 59/59/59 50/50/63 66/66/84
f 60/60/64 59/59/66 75/75/86
f 71/71/20 54/54/20 60/60/20
f 75/75/85 66/66/84 68/68/85
f 76/76/87 75/75/86 77/77/89
f 72/72/20 71/71/20 76/76/20
f 77/77/88 68/68/85 70/70/91
f 70/70/93 64/64/126 73/73/94
f 80/80/127 78/78/127 77/77/127
f 80/80/128 79/79/128 73/73/128
f 74/74/20 72/72/20 78/78/20
