# Blender v2.93.1 OBJ File: ''
# www.blender.org
mtllib untitled4.mtl
o Cube_Cube.029
v -0.834268 -0.004177 0.099430
v -0.853405 0.112760 0.111558
v -0.860428 0.283073 0.111631
v -0.843374 -0.004218 -0.020958
v -0.945988 0.101365 -0.006373
v -0.948972 0.282436 -0.011115
v -0.850819 -0.004218 -0.189498
v -0.948447 0.106718 -0.187606
v -0.952096 0.285560 -0.191592
v -0.853897 -0.004218 -0.380492
v -0.948794 0.109563 -0.380405
v -0.952098 0.287184 -0.381731
v -0.712798 -0.004180 0.100274
v -0.709472 0.123337 0.111631
v -0.709280 0.286404 0.111631
v -0.707525 -0.004218 -0.029517
v -0.707218 -0.004218 -0.192928
v -0.707685 -0.004218 -0.381506
v -0.543646 -0.004202 0.100594
v -0.542073 0.126258 0.111631
v -0.541634 0.287534 0.111631
v -0.541675 -0.004218 -0.032262
v -0.541224 -0.004218 -0.194103
v -0.541207 -0.004218 -0.381870
v -0.860482 0.469113 0.111631
v -0.853583 0.638103 0.111523
v -0.830605 0.748810 0.094900
v -0.948828 0.470350 -0.010997
v -0.945574 0.650609 -0.006703
v -0.841211 0.748928 -0.024619
v -0.952094 0.467011 -0.191483
v -0.947755 0.644181 -0.187880
v -0.848965 0.748928 -0.191361
v -0.952097 0.465197 -0.381726
v -0.948097 0.640772 -0.380549
v -0.852642 0.748928 -0.381157
v -0.709177 0.466100 0.111631
v -0.708656 0.625122 0.111631
v -0.709715 0.748794 0.098837
v -0.705567 0.748928 -0.031458
v -0.705725 0.748928 -0.193910
v -0.706469 0.748928 -0.381859
v -0.541542 0.465264 0.111631
v -0.541582 0.621479 0.111631
v -0.542194 0.748871 0.100793
v -0.540855 0.748928 -0.033365
v -0.540704 0.748928 -0.194642
v -0.540809 0.748928 -0.382052
v -0.854305 -0.004218 -0.577813
v -0.948782 0.109838 -0.578125
v -0.952098 0.287243 -0.577046
v -0.851602 -0.004218 -0.771266
v -0.948334 0.107136 -0.773312
v -0.952094 0.285595 -0.769241
v -0.844045 -0.004218 -0.939579
v -0.945651 0.102022 -0.955534
v -0.948241 0.282825 -0.949827
v -0.834678 -0.004100 -1.059342
v -0.851227 0.116338 -1.067129
v -0.857980 0.284748 -1.067162
v -0.707814 -0.004218 -0.577462
v -0.707371 -0.004218 -0.768118
v -0.706956 -0.004218 -0.928822
v -0.710277 -0.004218 -1.056752
v -0.707922 0.124849 -1.067162
v -0.707837 0.287123 -1.067162
v -0.541234 -0.004218 -0.577375
v -0.541207 -0.004218 -0.767028
v -0.541274 -0.004218 -0.925149
v -0.542271 -0.004212 -1.055311
v -0.541396 0.127028 -1.067162
v -0.541162 0.287894 -1.067162
v -0.952097 0.465115 -0.577079
v -0.948047 0.640458 -0.578207
v -0.853095 0.748928 -0.577853
v -0.952092 0.466993 -0.769413
v -0.947539 0.643698 -0.773316
v -0.849829 0.748928 -0.770163
v -0.948100 0.470352 -0.949999
v -0.945107 0.650312 -0.955530
v -0.841718 0.748928 -0.936539
v -0.857995 0.468650 -1.067162
v -0.851189 0.635441 -1.067093
v -0.829943 0.748910 -1.054411
v -0.706634 0.748928 -0.577445
v -0.705944 0.748928 -0.767510
v -0.704957 0.748928 -0.927081
v -0.707730 0.465969 -1.067162
v -0.707045 0.623986 -1.067162
v -0.706942 0.748901 -1.055195
v -0.540855 0.748928 -0.577362
v -0.540738 0.748928 -0.766698
v -0.540476 0.748928 -0.924138
v -0.541090 0.465187 -1.067162
v -0.540915 0.620822 -1.067162
v -0.540717 0.748910 -1.055544
v -0.358308 -0.004198 0.100645
v -0.359523 0.126585 0.111631
v -0.359980 0.287715 0.111631
v -0.359841 -0.004218 -0.032570
v -0.360354 -0.004218 -0.194320
v -0.360530 -0.004218 -0.381960
v -0.191111 -0.004174 0.100354
v -0.196026 0.124560 0.111631
v -0.196976 0.287089 0.111631
v -0.198432 -0.004218 -0.030785
v -0.199725 -0.004218 -0.193746
v -0.199820 -0.004218 -0.381832
v -0.070997 -0.004181 0.099403
v -0.054101 0.115600 0.111565
v -0.048203 0.284654 0.111631
v -0.064857 -0.004218 -0.024002
v 0.036982 0.101923 -0.006992
v 0.040133 0.282980 -0.011374
v -0.058837 -0.004218 -0.191323
v 0.039575 0.106780 -0.188178
v 0.043422 0.285816 -0.191874
v -0.056357 -0.004218 -0.381171
v 0.039934 0.109424 -0.380647
v 0.043426 0.287335 -0.381844
v -0.360015 0.465161 0.111631
v -0.359691 0.621047 0.111631
v -0.358777 0.748866 0.101085
v -0.360095 0.748928 -0.033548
v -0.360492 0.748928 -0.194790
v -0.360627 0.748928 -0.382107
v -0.197100 0.465821 0.111631
v -0.196809 0.623834 0.111631
v -0.193458 0.748803 0.099241
v -0.200012 0.748928 -0.032534
v -0.200928 0.748928 -0.194594
v -0.200788 0.748928 -0.382113
v -0.048263 0.468688 0.111631
v -0.054101 0.636122 0.111517
v -0.074962 0.748834 0.093976
v 0.040043 0.470378 -0.011138
v 0.038445 0.651458 -0.006398
v -0.067069 0.748928 -0.027756
v 0.043421 0.467026 -0.191696
v 0.038872 0.644358 -0.188293
v -0.060597 0.748928 -0.193227
v 0.043425 0.465193 -0.381801
v 0.039227 0.641005 -0.380712
v -0.057499 0.748928 -0.381852
v -0.360551 -0.004218 -0.577367
v -0.360411 -0.004218 -0.766854
v -0.359975 -0.004218 -0.924710
v -0.358787 -0.004205 -1.055088
v -0.359625 0.127211 -1.067162
v -0.360036 0.288001 -1.067162
v -0.199799 -0.004218 -0.577451
v -0.199817 -0.004218 -0.767551
v -0.199135 -0.004218 -0.927383
v -0.192975 -0.004218 -1.056441
v -0.197175 0.125821 -1.067162
v -0.198120 0.287677 -1.067162
v -0.056072 -0.004218 -0.577820
v 0.039924 0.109636 -0.578175
v 0.043425 0.287354 -0.577079
v -0.058417 -0.004218 -0.770126
v 0.039464 0.106987 -0.773122
v 0.043420 0.285726 -0.769165
v -0.064553 -0.004218 -0.937097
v 0.036443 0.102307 -0.955428
v 0.039417 0.283205 -0.949859
v -0.069891 -0.003996 -1.060059
v -0.056350 0.119229 -1.067137
v -0.050630 0.286350 -1.067162
v -0.360647 0.748928 -0.577350
v -0.360538 0.748928 -0.766571
v -0.360182 0.748928 -0.923816
v -0.360060 0.465102 -1.067162
v -0.359739 0.620501 -1.067162
v -0.359220 0.748903 -1.055585
v -0.200733 0.748928 -0.577438
v -0.200966 0.748928 -0.767062
v -0.200717 0.748928 -0.925845
v -0.198258 0.465759 -1.067162
v -0.197966 0.622919 -1.067162
v -0.195374 0.748889 -1.055221
v 0.043424 0.465109 -0.577107
v 0.039186 0.640724 -0.578262
v -0.057160 0.748928 -0.577866
v 0.043419 0.467016 -0.769376
v 0.038666 0.644002 -0.773259
v -0.060061 0.748928 -0.769018
v 0.039288 0.470447 -0.950119
v 0.035937 0.650668 -0.955746
v -0.066831 0.748928 -0.934034
v -0.050718 0.468238 -1.067162
v -0.056492 0.633481 -1.067089
v -0.074783 0.748914 -1.054185
vn -0.5781 -0.6330 0.5150
vn -0.7867 0.0032 0.6173
vn -0.7500 -0.6606 0.0331
vn -0.9997 -0.0200 0.0170
vn -0.7679 -0.6405 -0.0081
vn -0.9998 -0.0186 -0.0001
vn 0.0070 -0.1020 0.9948
vn 0.0000 0.0000 1.0000
vn 0.0000 -1.0000 0.0003
vn 0.0000 -1.0000 0.0000
vn 0.0015 -0.0843 0.9964
vn 0.0000 -1.0000 0.0001
vn -0.8114 0.0003 0.5845
vn -0.7892 -0.0004 0.6141
vn -0.5480 0.6724 0.4976
vn -0.9999 -0.0000 0.0173
vn -0.9996 0.0241 0.0176
vn -0.7265 0.6863 0.0338
vn -1.0000 0.0000 0.0000
vn -0.9997 0.0228 -0.0002
vn -0.7496 0.6617 0.0145
vn -0.0007 0.0007 1.0000
vn -0.0324 0.1026 0.9942
vn 0.0000 1.0000 0.0010
vn 0.0000 1.0000 0.0000
vn -0.0117 0.1028 0.9946
vn 0.0000 1.0000 0.0004
vn -0.7701 -0.6379 -0.0009
vn -0.9998 -0.0187 -0.0000
vn -0.7548 -0.6559 -0.0105
vn -0.9998 -0.0210 -0.0020
vn -0.7233 -0.6905 0.0087
vn -0.9998 -0.0139 -0.0143
vn -0.9870 -0.1406 -0.0773
vn -0.7920 -0.0319 -0.6097
vn -0.0009 -1.0000 -0.0011
vn 0.0036 -0.0640 -0.9979
vn 0.0000 0.0000 -1.0000
vn 0.0012 -0.0899 -0.9959
vn -0.9997 0.0231 -0.0000
vn -0.7524 0.6587 -0.0012
vn -0.9997 0.0257 -0.0022
vn -0.7326 0.6806 -0.0124
vn -0.9998 0.0007 -0.0221
vn -0.9998 0.0162 -0.0128
vn -0.6917 0.7219 0.0170
vn -0.7927 -0.0001 -0.6096
vn -0.7920 0.0326 -0.6096
vn -0.9762 0.1937 -0.0976
vn -0.0004 0.0004 -1.0000
vn -0.0063 0.0954 -0.9954
vn 0.0001 1.0000 -0.0002
vn -0.0021 0.0954 -0.9954
vn -0.0001 1.0000 -0.0002
vn 0.0002 -0.0837 0.9965
vn 0.0000 -1.0000 0.0002
vn -0.0010 -0.0837 0.9965
vn -0.0059 -0.1002 0.9950
vn 0.7182 -0.6949 0.0359
vn 0.7930 0.0009 0.6092
vn 0.7476 -0.6636 0.0269
vn 0.9996 -0.0211 0.0179
vn 0.7629 -0.6465 0.0100
vn 0.9998 -0.0196 -0.0001
vn -0.0016 0.0848 0.9964
vn 0.0111 0.0984 0.9951
vn -0.0000 1.0000 0.0005
vn 0.0007 0.0007 1.0000
vn 0.0441 0.0974 0.9943
vn 0.8122 -0.0003 0.5833
vn 0.7872 -0.0092 0.6166
vn 0.6730 0.7383 0.0442
vn -0.0000 1.0000 0.0008
vn 0.9998 -0.0000 0.0182
vn 0.9995 0.0253 0.0182
vn 0.7236 0.6896 0.0283
vn 1.0000 0.0000 0.0000
vn 0.9997 0.0239 -0.0002
vn 0.7446 0.6674 0.0122
vn 0.0001 -0.0915 -0.9958
vn -0.0001 -1.0000 -0.0000
vn -0.0008 -0.0915 -0.9958
vn 0.7645 -0.6446 -0.0007
vn 0.9998 -0.0197 -0.0000
vn 0.7507 -0.6606 0.0072
vn 0.9998 -0.0221 -0.0021
vn 0.7262 -0.6875 0.0056
vn 0.9997 -0.0159 -0.0162
vn 0.0018 -1.0000 -0.0019
vn 0.9928 -0.1116 -0.0433
vn -0.0025 -0.0571 -0.9984
vn 0.7926 -0.0272 -0.6092
vn -0.0002 0.0898 -0.9960
vn 0.0000 1.0000 -0.0002
vn 0.0022 0.0943 -0.9955
vn 0.0001 1.0000 -0.0003
vn 0.9997 0.0241 -0.0000
vn 0.7468 0.6650 0.0013
vn 0.9996 0.0268 -0.0022
vn 0.7285 0.6850 0.0096
vn 0.9997 0.0007 -0.0228
vn 0.9997 0.0181 -0.0143
vn 0.6928 0.7210 0.0160
vn 0.7927 0.0004 -0.6096
vn 0.7921 0.0280 -0.6097
vn 0.0005 0.0005 -1.0000
vn 0.7409 0.1894 -0.6443
vn 0.0085 0.0942 -0.9955
vn -0.0002 1.0000 -0.0001
vn -0.9829 -0.1686 0.0744
vn -0.8105 -0.0337 0.5848
vn -0.7178 -0.6961 -0.0108
vn -0.9998 -0.0161 0.0131
vn -0.7505 -0.6607 0.0121
vn -0.9998 -0.0204 0.0015
vn -0.0069 -0.0885 0.9960
vn -0.0005 -0.0004 1.0000
vn -0.0019 -0.0887 0.9961
vn -0.0001 -1.0000 0.0003
vn -0.8110 -0.0002 0.5850
vn -0.8107 0.0335 0.5844
vn -0.9728 0.2149 0.0865
vn -0.9998 0.0008 0.0181
vn -0.9998 0.0178 0.0114
vn -0.6872 0.7263 -0.0175
vn -0.9997 0.0245 0.0013
vn -0.7276 0.6859 -0.0108
vn 0.0123 0.1460 0.9892
vn 0.0001 1.0000 0.0010
vn 0.0018 0.0848 0.9964
vn -0.0005 1.0000 0.0010
vn -0.7680 -0.6405 0.0016
vn -0.7701 -0.6379 0.0071
vn -0.9998 -0.0187 0.0001
vn -0.7542 -0.6558 -0.0339
vn -0.9996 -0.0206 -0.0210
vn -0.5593 -0.6179 -0.5525
vn -0.7640 0.0094 -0.6452
vn 0.0207 -0.0808 -0.9965
vn -0.0002 -0.0002 -1.0000
vn 0.0085 -0.0806 -0.9967
vn -0.9997 0.0228 -0.0003
vn -0.7498 0.6617 0.0017
vn -0.9997 0.0231 0.0002
vn -0.7524 0.6586 0.0090
vn -0.9998 -0.0000 -0.0213
vn -0.9994 0.0253 -0.0216
vn -0.7318 0.6806 -0.0357
vn -0.7926 0.0000 -0.6097
vn -0.7655 -0.0070 -0.6434
vn -0.5301 0.6586 -0.5341
vn 0.0082 0.1096 -0.9939
vn 0.0017 0.0903 -0.9959
vn 0.0000 1.0000 -0.0001
vn -0.0003 -0.0843 0.9964
vn 0.0017 -0.0872 0.9962
vn 0.0001 -1.0000 0.0003
vn 0.0079 -0.0870 0.9962
vn 0.0004 -0.0004 1.0000
vn 0.7717 -0.1710 0.6126
vn 0.8117 -0.0285 0.5833
vn 0.7222 -0.6916 -0.0082
vn 0.9998 -0.0171 0.0139
vn 0.7483 -0.6633 -0.0077
vn 0.9998 -0.0214 0.0016
vn 0.0002 0.0822 0.9966
vn -0.0014 0.0822 0.9966
vn 0.0004 1.0000 0.0009
vn -0.0123 0.1515 0.9884
vn 0.8118 0.0003 0.5839
vn 0.8113 0.0287 0.5839
vn 0.7495 0.2350 0.6188
vn -0.0002 1.0000 0.0010
vn 0.9998 0.0005 0.0187
vn 1.0000 0.0088 0.0020
vn 0.6812 0.7316 -0.0270
vn 0.9997 0.0256 0.0014
vn 0.7248 0.6889 -0.0107
vn 0.0000 -1.0000 -0.0001
vn -0.0081 -0.0824 -0.9966
vn 0.7629 -0.6465 0.0011
vn 0.7645 -0.6446 -0.0093
vn 0.9998 -0.0197 0.0001
vn 0.7500 -0.6609 -0.0276
vn 0.9995 -0.0216 -0.0218
vn 0.5542 -0.6209 -0.5544
vn -0.0291 -0.0831 -0.9961
vn 0.7697 0.0070 -0.6383
vn 0.0002 -0.0002 -1.0000
vn 0.0002 0.0903 -0.9959
vn -0.0013 0.0898 -0.9960
vn 0.7447 0.6674 -0.0011
vn 0.9997 0.0241 0.0002
vn 0.7468 0.6650 -0.0113
vn 0.9998 -0.0000 -0.0222
vn 0.9994 0.0263 -0.0223
vn 0.7274 0.6856 -0.0298
vn 0.7932 -0.0003 -0.6089
vn 0.7698 -0.0056 -0.6382
vn 0.6853 0.7268 -0.0454
vn -0.0077 0.1099 -0.9939
vn -0.0000 1.0000 -0.0003
usemtl None
s off
f 4//1 2//1 5//1
f 2//2 6//2 5//2
f 4//3 8//3 7//3
f 8//4 6//4 9//4
f 10//5 8//5 11//5
f 11//6 9//6 12//6
f 1//7 14//7 2//7
f 3//8 14//8 15//8
f 13//9 4//9 16//9
f 16//10 7//10 17//10
f 17//10 10//10 18//10
f 14//11 19//11 20//11
f 15//8 20//8 21//8
f 19//12 16//12 22//12
f 22//10 17//10 23//10
f 23//10 18//10 24//10
f 6//13 25//13 28//13
f 28//14 26//14 29//14
f 26//15 30//15 29//15
f 6//16 31//16 9//16
f 28//17 32//17 31//17
f 32//18 30//18 33//18
f 9//19 34//19 12//19
f 31//20 35//20 34//20
f 35//21 33//21 36//21
f 25//8 15//8 37//8
f 25//22 38//22 26//22
f 27//23 38//23 39//23
f 27//24 40//24 30//24
f 33//25 40//25 41//25
f 33//25 42//25 36//25
f 37//8 21//8 43//8
f 37//8 44//8 38//8
f 38//26 45//26 39//26
f 40//27 45//27 46//27
f 41//25 46//25 47//25
f 42//25 47//25 48//25
f 49//28 11//28 50//28
f 50//29 12//29 51//29
f 49//30 53//30 52//30
f 50//31 54//31 53//31
f 55//32 53//32 56//32
f 53//33 57//33 56//33
f 55//34 59//34 58//34
f 59//35 57//35 60//35
f 18//10 49//10 61//10
f 62//10 49//10 52//10
f 63//10 52//10 55//10
f 64//36 55//36 58//36
f 65//37 58//37 59//37
f 65//38 60//38 66//38
f 24//10 61//10 67//10
f 68//10 61//10 62//10
f 69//10 62//10 63//10
f 70//10 63//10 64//10
f 70//39 65//39 71//39
f 71//38 66//38 72//38
f 51//19 34//19 73//19
f 34//40 74//40 73//40
f 35//41 75//41 74//41
f 54//19 73//19 76//19
f 76//42 74//42 77//42
f 77//43 75//43 78//43
f 57//44 76//44 79//44
f 79//45 77//45 80//45
f 77//46 81//46 80//46
f 60//47 79//47 82//47
f 79//48 83//48 82//48
f 83//49 81//49 84//49
f 36//25 85//25 75//25
f 75//25 86//25 78//25
f 78//25 87//25 81//25
f 88//38 60//38 82//38
f 89//50 82//50 83//50
f 89//51 84//51 90//51
f 84//52 87//52 90//52
f 42//25 91//25 85//25
f 85//25 92//25 86//25
f 86//25 93//25 87//25
f 72//38 88//38 94//38
f 95//38 88//38 89//38
f 96//53 89//53 90//53
f 87//54 96//54 90//54
f 20//55 97//55 98//55
f 21//8 98//8 99//8
f 97//56 22//56 100//56
f 100//10 23//10 101//10
f 101//10 24//10 102//10
f 97//57 104//57 98//57
f 98//8 105//8 99//8
f 106//56 97//56 100//56
f 107//10 100//10 101//10
f 108//10 101//10 102//10
f 104//58 109//58 110//58
f 104//8 111//8 105//8
f 112//9 103//9 106//9
f 113//59 109//59 112//59
f 114//60 110//60 113//60
f 115//10 106//10 107//10
f 116//61 112//61 115//61
f 114//62 116//62 117//62
f 118//10 107//10 108//10
f 119//63 115//63 118//63
f 117//64 119//64 120//64
f 43//8 99//8 121//8
f 43//8 122//8 44//8
f 44//65 123//65 45//65
f 45//27 124//27 46//27
f 47//25 124//25 125//25
f 47//25 126//25 48//25
f 99//8 127//8 121//8
f 122//8 127//8 128//8
f 123//66 128//66 129//66
f 123//67 130//67 124//67
f 124//25 131//25 125//25
f 125//25 132//25 126//25
f 127//8 111//8 133//8
f 128//68 133//68 134//68
f 128//69 135//69 129//69
f 136//70 111//70 114//70
f 134//71 136//71 137//71
f 135//72 137//72 138//72
f 130//73 135//73 138//73
f 139//74 114//74 117//74
f 140//75 136//75 139//75
f 138//76 140//76 141//76
f 130//25 141//25 131//25
f 142//77 117//77 120//77
f 143//78 139//78 142//78
f 141//79 143//79 144//79
f 132//25 141//25 144//25
f 102//10 67//10 145//10
f 146//10 67//10 68//10
f 147//10 68//10 69//10
f 148//10 69//10 70//10
f 148//80 71//80 149//80
f 149//38 72//38 150//38
f 151//10 102//10 145//10
f 151//10 146//10 152//10
f 152//10 147//10 153//10
f 153//81 148//81 154//81
f 155//82 148//82 149//82
f 156//38 149//38 150//38
f 157//10 108//10 151//10
f 119//83 157//83 158//83
f 120//84 158//84 159//84
f 157//10 152//10 160//10
f 158//85 160//85 161//85
f 162//86 158//86 161//86
f 160//10 153//10 163//10
f 161//87 163//87 164//87
f 165//88 161//88 164//88
f 163//89 154//89 166//89
f 167//90 163//90 166//90
f 166//91 155//91 167//91
f 165//92 167//92 168//92
f 168//38 155//38 156//38
f 48//25 169//25 91//25
f 92//25 169//25 170//25
f 93//25 170//25 171//25
f 150//38 94//38 172//38
f 172//38 95//38 173//38
f 173//93 96//93 174//93
f 96//94 171//94 174//94
f 169//25 132//25 175//25
f 170//25 175//25 176//25
f 171//25 176//25 177//25
f 156//38 172//38 178//38
f 178//38 173//38 179//38
f 179//95 174//95 180//95
f 174//96 177//96 180//96
f 181//77 120//77 159//77
f 182//97 142//97 181//97
f 144//98 182//98 183//98
f 175//25 144//25 183//25
f 181//77 162//77 184//77
f 182//99 184//99 185//99
f 186//100 182//100 185//100
f 176//25 183//25 186//25
f 184//101 165//101 187//101
f 185//102 187//102 188//102
f 189//103 185//103 188//103
f 177//25 186//25 189//25
f 187//104 168//104 190//104
f 168//38 178//38 190//38
f 191//105 187//105 190//105
f 190//106 179//106 191//106
f 192//107 188//107 191//107
f 192//108 179//108 180//108
f 180//109 189//109 192//109
f 4//110 1//110 2//110
f 2//111 3//111 6//111
f 4//112 5//112 8//112
f 8//113 5//113 6//113
f 10//114 7//114 8//114
f 11//115 8//115 9//115
f 1//116 13//116 14//116
f 3//117 2//117 14//117
f 13//9 1//9 4//9
f 16//10 4//10 7//10
f 17//10 7//10 10//10
f 14//118 13//118 19//118
f 15//8 14//8 20//8
f 19//119 13//119 16//119
f 22//10 16//10 17//10
f 23//10 17//10 18//10
f 6//120 3//120 25//120
f 28//121 25//121 26//121
f 26//122 27//122 30//122
f 6//123 28//123 31//123
f 28//124 29//124 32//124
f 32//125 29//125 30//125
f 9//19 31//19 34//19
f 31//126 32//126 35//126
f 35//127 32//127 33//127
f 25//8 3//8 15//8
f 25//8 37//8 38//8
f 27//128 26//128 38//128
f 27//129 39//129 40//129
f 33//25 30//25 40//25
f 33//25 41//25 42//25
f 37//8 15//8 21//8
f 37//8 43//8 44//8
f 38//130 44//130 45//130
f 40//131 39//131 45//131
f 41//25 40//25 46//25
f 42//25 41//25 47//25
f 49//132 10//132 11//132
f 50//6 11//6 12//6
f 49//133 50//133 53//133
f 50//134 51//134 54//134
f 55//135 52//135 53//135
f 53//136 54//136 57//136
f 55//137 56//137 59//137
f 59//138 56//138 57//138
f 18//10 10//10 49//10
f 62//10 61//10 49//10
f 63//10 62//10 52//10
f 64//10 63//10 55//10
f 65//139 64//139 58//139
f 65//140 59//140 60//140
f 24//10 18//10 61//10
f 68//10 67//10 61//10
f 69//10 68//10 62//10
f 70//10 69//10 63//10
f 70//141 64//141 65//141
f 71//38 65//38 66//38
f 51//19 12//19 34//19
f 34//142 35//142 74//142
f 35//143 36//143 75//143
f 54//19 51//19 73//19
f 76//144 73//144 74//144
f 77//145 74//145 75//145
f 57//146 54//146 76//146
f 79//147 76//147 77//147
f 77//148 78//148 81//148
f 60//149 57//149 79//149
f 79//150 80//150 83//150
f 83//151 80//151 81//151
f 36//25 42//25 85//25
f 75//25 85//25 86//25
f 78//25 86//25 87//25
f 88//38 66//38 60//38
f 89//38 88//38 82//38
f 89//152 83//152 84//152
f 84//94 81//94 87//94
f 42//25 48//25 91//25
f 85//25 91//25 92//25
f 86//25 92//25 93//25
f 72//38 66//38 88//38
f 95//38 94//38 88//38
f 96//153 95//153 89//153
f 87//154 93//154 96//154
f 20//155 19//155 97//155
f 21//8 20//8 98//8
f 97//12 19//12 22//12
f 100//10 22//10 23//10
f 101//10 23//10 24//10
f 97//156 103//156 104//156
f 98//8 104//8 105//8
f 106//157 103//157 97//157
f 107//10 106//10 100//10
f 108//10 107//10 101//10
f 104//158 103//158 109//158
f 104//159 110//159 111//159
f 112//119 109//119 103//119
f 113//160 110//160 109//160
f 114//161 111//161 110//161
f 115//10 112//10 106//10
f 116//162 113//162 112//162
f 114//163 113//163 116//163
f 118//10 115//10 107//10
f 119//164 116//164 115//164
f 117//165 116//165 119//165
f 43//8 21//8 99//8
f 43//8 121//8 122//8
f 44//166 122//166 123//166
f 45//67 123//67 124//67
f 47//25 46//25 124//25
f 47//25 125//25 126//25
f 99//8 105//8 127//8
f 122//8 121//8 127//8
f 123//167 122//167 128//167
f 123//168 129//168 130//168
f 124//25 130//25 131//25
f 125//25 131//25 132//25
f 127//8 105//8 111//8
f 128//8 127//8 133//8
f 128//169 134//169 135//169
f 136//170 133//170 111//170
f 134//171 133//171 136//171
f 135//172 134//172 137//172
f 130//173 129//173 135//173
f 139//174 136//174 114//174
f 140//175 137//175 136//175
f 138//176 137//176 140//176
f 130//25 138//25 141//25
f 142//77 139//77 117//77
f 143//177 140//177 139//177
f 141//178 140//178 143//178
f 132//25 131//25 141//25
f 102//10 24//10 67//10
f 146//10 145//10 67//10
f 147//10 146//10 68//10
f 148//179 147//179 69//179
f 148//39 70//39 71//39
f 149//38 71//38 72//38
f 151//10 108//10 102//10
f 151//10 145//10 146//10
f 152//10 146//10 147//10
f 153//179 147//179 148//179
f 155//180 154//180 148//180
f 156//38 155//38 149//38
f 157//10 118//10 108//10
f 119//181 118//181 157//181
f 120//64 119//64 158//64
f 157//10 151//10 152//10
f 158//182 157//182 160//182
f 162//183 159//183 158//183
f 160//10 152//10 153//10
f 161//184 160//184 163//184
f 165//185 162//185 161//185
f 163//10 153//10 154//10
f 167//186 164//186 163//186
f 166//187 154//187 155//187
f 165//188 164//188 167//188
f 168//189 167//189 155//189
f 48//25 126//25 169//25
f 92//25 91//25 169//25
f 93//25 92//25 170//25
f 150//38 72//38 94//38
f 172//38 94//38 95//38
f 173//190 95//190 96//190
f 96//154 93//154 171//154
f 169//25 126//25 132//25
f 170//25 169//25 175//25
f 171//25 170//25 176//25
f 156//38 150//38 172//38
f 178//38 172//38 173//38
f 179//191 173//191 174//191
f 174//94 171//94 177//94
f 181//77 142//77 120//77
f 182//78 143//78 142//78
f 144//192 143//192 182//192
f 175//25 132//25 144//25
f 181//77 159//77 162//77
f 182//193 181//193 184//193
f 186//194 183//194 182//194
f 176//25 175//25 183//25
f 184//195 162//195 165//195
f 185//196 184//196 187//196
f 189//197 186//197 185//197
f 177//25 176//25 186//25
f 187//198 165//198 168//198
f 168//38 156//38 178//38
f 191//199 188//199 187//199
f 190//38 178//38 179//38
f 192//200 189//200 188//200
f 192//201 191//201 179//201
f 180//202 177//202 189//202
