# Blender v2.93.1 OBJ File: ''
# www.blender.org
mtllib untitled5.mtl
o Icosphere_Icosphere.008
v -0.766391 -0.404865 0.403860
v -0.821547 -0.153012 0.437515
v -0.838783 -0.448591 0.155532
v -0.930973 -0.157506 0.157356
v -0.405176 -0.406768 0.768806
v -0.445232 -0.155545 0.834528
v -0.394188 -0.753962 0.395670
v -0.554205 -0.556395 0.554742
v -0.656508 -0.175962 0.656653
v -0.441608 -0.833064 0.154483
v -0.654680 -0.657664 0.175422
v -0.156490 -0.452534 0.845182
v -0.157028 -0.157460 0.927708
v -0.157807 -0.859691 0.459040
v -0.176550 -0.664768 0.663417
v -0.155056 -0.923465 0.156349
v -0.828684 0.167266 0.441101
v -0.771142 0.413125 0.405379
v -0.918355 0.170896 0.155293
v -0.832911 0.449986 0.152616
v -0.437938 0.166080 0.824277
v -0.400247 0.408404 0.763815
v -0.662790 0.193405 0.663364
v -0.546029 0.555390 0.546462
v -0.405522 0.778746 0.405521
v -0.655265 0.661115 0.175767
v -0.441860 0.837968 0.152641
v -0.154712 0.170370 0.915312
v -0.153066 0.452855 0.837142
v -0.175422 0.659682 0.652974
v -0.151041 0.824686 0.433831
v -0.156208 0.931065 0.155467
v -0.835442 -0.445512 -0.168305
v -0.931075 -0.156868 -0.172541
v -0.765495 -0.402470 -0.409539
v -0.819036 -0.150397 -0.441811
v -0.438671 -0.829587 -0.166678
v -0.652516 -0.655314 -0.190870
v -0.392120 -0.752736 -0.400828
v -0.550875 -0.552776 -0.560688
v -0.653928 -0.175788 -0.660157
v -0.401850 -0.403124 -0.772993
v -0.440582 -0.152806 -0.836416
v -0.154079 -0.920731 -0.170679
v -0.155740 -0.859633 -0.464649
v -0.176442 -0.661430 -0.666437
v -0.153883 -0.447394 -0.847116
v -0.155168 -0.155519 -0.928599
v -0.918370 0.170810 -0.170715
v -0.829634 0.447203 -0.167156
v -0.825648 0.166378 -0.445239
v -0.769638 0.411811 -0.412282
v -0.651986 0.658068 -0.191870
v -0.440993 0.838671 -0.168869
v -0.659872 0.194006 -0.666875
v -0.542341 0.552360 -0.552767
v -0.401259 0.776417 -0.411894
v -0.433266 0.166043 -0.825824
v -0.395912 0.406484 -0.767778
v -0.154885 0.925676 -0.172043
v -0.175213 0.657090 -0.656681
v -0.148048 0.821502 -0.439014
v -0.152743 0.170470 -0.915961
v -0.150117 0.449015 -0.838765
v 0.168772 -0.446637 0.838679
v 0.169793 -0.154608 0.913476
v 0.165930 -0.819929 0.435582
v 0.191412 -0.654677 0.654733
v 0.172918 -0.928926 0.156504
v 0.407331 -0.399582 0.762401
v 0.445044 -0.151087 0.825000
v 0.413997 -0.772567 0.405908
v 0.556401 -0.547090 0.547491
v 0.667055 -0.177167 0.661153
v 0.449575 -0.831840 0.152388
v 0.661198 -0.654894 0.175742
v 0.775123 -0.403604 0.403777
v 0.832753 -0.151944 0.438828
v 0.836162 -0.440757 0.152406
v 0.921470 -0.154501 0.154315
v 0.170996 0.171604 0.921164
v 0.169559 0.456896 0.844268
v 0.193385 0.668129 0.659662
v 0.171029 0.858011 0.450146
v 0.169342 0.920048 0.153209
v 0.448347 0.167970 0.831848
v 0.408588 0.410191 0.764932
v 0.657056 0.191801 0.650620
v 0.558031 0.560130 0.548369
v 0.397071 0.755479 0.388538
v 0.654885 0.657511 0.174884
v 0.443335 0.834086 0.149190
v 0.822830 0.165619 0.431589
v 0.768282 0.407430 0.396226
v 0.929039 0.172423 0.154451
v 0.840114 0.449939 0.150243
v 0.172130 -0.923923 -0.171511
v 0.165100 -0.816825 -0.439891
v 0.191905 -0.651882 -0.658400
v 0.168903 -0.441723 -0.840624
v 0.169830 -0.152548 -0.913904
v 0.448980 -0.832285 -0.167606
v 0.658101 -0.651602 -0.191865
v 0.411667 -0.769145 -0.411819
v 0.553393 -0.543426 -0.553914
v 0.664226 -0.176995 -0.664642
v 0.405208 -0.395071 -0.766020
v 0.441645 -0.148064 -0.826744
v 0.832815 -0.437597 -0.167795
v 0.921588 -0.153806 -0.171382
v 0.774385 -0.400071 -0.410912
v 0.829467 -0.148818 -0.443736
v 0.168767 0.916623 -0.170116
v 0.193765 0.664507 -0.662848
v 0.170702 0.857151 -0.456533
v 0.171041 0.171631 -0.921176
v 0.169562 0.452433 -0.846020
v 0.652519 0.655000 -0.191598
v 0.439624 0.829144 -0.165997
v 0.654238 0.192170 -0.654285
v 0.554370 0.556245 -0.554811
v 0.394989 0.753231 -0.396122
v 0.444230 0.167793 -0.833200
v 0.405510 0.406840 -0.768838
v 0.929080 0.172463 -0.172395
v 0.835391 0.446204 -0.167670
v 0.819354 0.164660 -0.436714
v 0.766435 0.405208 -0.404466
vn -0.9044 -0.2884 0.3144
vn -0.6328 -0.3546 0.6884
vn -0.7862 -0.2478 0.5661
vn -0.5731 -0.7386 0.3549
vn -0.7262 -0.6091 0.3189
vn -0.2965 -0.2857 0.9113
vn -0.3728 -0.7461 0.5516
vn -0.3760 -0.6159 0.6923
vn -0.2840 -0.8931 0.3488
vn -0.9310 0.0381 0.3630
vn -0.9209 0.2845 0.2665
vn -0.5838 -0.0247 0.8115
vn -0.7998 -0.0245 0.5998
vn -0.6009 0.4145 0.6834
vn -0.6569 0.4151 0.6294
vn -0.7509 0.6021 0.2713
vn -0.5985 0.7566 0.2632
vn -0.3063 0.0381 0.9512
vn -0.3168 0.2547 0.9137
vn -0.3731 0.6330 0.6783
vn -0.2069 0.7925 0.5737
vn -0.3017 0.9178 0.2583
vn -0.9493 -0.3145 -0.0003
vn -0.8946 -0.2384 -0.3780
vn -0.6311 -0.7756 -0.0087
vn -0.7542 -0.6566 -0.0087
vn -0.5679 -0.7396 -0.3612
vn -0.6924 -0.6235 -0.3632
vn -0.7875 -0.2399 -0.5676
vn -0.5926 -0.2828 -0.7542
vn -0.3051 -0.9523 -0.0089
vn -0.4452 -0.8772 -0.1798
vn -0.3727 -0.7417 -0.5576
vn -0.3262 -0.5895 -0.7390
vn -0.2977 -0.2775 -0.9134
vn -0.9992 0.0387 0.0000
vn -0.9521 0.3057 -0.0000
vn -0.9473 -0.0232 -0.3196
vn -0.9158 0.2511 -0.3134
vn -0.7654 0.6434 -0.0122
vn -0.6503 0.7597 -0.0001
vn -0.7991 -0.0238 -0.6007
vn -0.6501 0.4157 -0.6360
vn -0.6463 0.6567 -0.3887
vn -0.6496 0.6534 -0.3887
vn -0.6390 0.0402 -0.7682
vn -0.5289 0.2759 -0.8026
vn -0.2911 0.9566 -0.0169
vn -0.2027 0.7934 -0.5740
vn -0.2008 0.9109 -0.3606
vn -0.3062 0.0392 -0.9511
vn -0.3089 0.2567 -0.9158
vn -0.3159 0.6030 -0.7326
vn 0.0443 -0.2480 0.9677
vn 0.0361 -0.7999 0.5990
vn 0.0358 -0.6598 0.7506
vn -0.0157 -0.9315 0.3634
vn 0.2974 -0.2754 0.9142
vn 0.3842 -0.6527 0.6530
vn 0.3837 -0.6154 0.6885
vn 0.6064 -0.3937 0.6908
vn 0.3233 -0.9104 0.2582
vn 0.6021 -0.7546 0.2609
vn 0.7884 -0.2583 0.5583
vn 0.7595 -0.5910 0.2718
vn 0.9235 -0.2770 0.2652
vn -0.0179 -0.0235 0.9996
vn -0.0246 0.2601 0.9653
vn -0.0287 0.6596 0.7511
vn -0.1097 0.7306 0.6739
vn 0.0341 0.9338 0.3562
vn 0.3062 -0.0236 0.9517
vn 0.3483 0.2456 0.9047
vn 0.5963 0.0390 0.8018
vn 0.6323 0.3604 0.6858
vn 0.3910 0.6082 0.6909
vn 0.4634 0.6807 0.5674
vn 0.5737 0.7388 0.3535
vn 0.2852 0.8929 0.3484
vn 0.7990 0.0386 0.6001
vn 0.7041 0.3593 0.6124
vn 0.9337 -0.0218 0.3573
vn 0.9026 0.2940 0.3144
vn 0.7259 0.6101 0.3174
vn -0.0098 -0.9998 -0.0152
vn 0.1448 -0.9686 -0.2021
vn 0.0338 -0.7997 -0.5995
vn 0.0267 -0.6532 -0.7567
vn 0.0460 -0.2455 -0.9683
vn 0.3142 -0.9493 0.0007
vn 0.6529 -0.7573 -0.0123
vn 0.2167 -0.9047 -0.3667
vn 0.6537 -0.6521 -0.3839
vn 0.3845 -0.6525 -0.6530
vn 0.3466 -0.5926 -0.7272
vn 0.5424 -0.2752 -0.7938
vn 0.2981 -0.2691 -0.9158
vn 0.7752 -0.6315 -0.0122
vn 0.9544 -0.2985 -0.0003
vn 0.6644 -0.6414 -0.3838
vn 0.9177 -0.2423 -0.3148
vn 0.7909 -0.2466 -0.5601
vn 0.0280 0.9996 -0.0106
vn -0.1181 0.7192 -0.6847
vn -0.1198 0.9719 -0.2026
vn -0.0160 -0.0224 -0.9996
vn -0.0247 0.2583 -0.9657
vn -0.0241 0.6550 -0.7552
vn 0.6324 0.7746 -0.0094
vn 0.3075 0.9515 -0.0106
vn 0.5659 0.7440 -0.3552
vn 0.4663 0.6720 -0.5753
vn 0.4528 0.8736 -0.1783
vn 0.6498 -0.0209 -0.7598
vn 0.3062 -0.0220 -0.9517
vn 0.5990 0.2972 -0.7436
vn 0.3438 0.2445 -0.9067
vn 0.3518 0.5885 -0.7279
vn 0.9997 -0.0230 0.0001
vn 0.9461 0.3238 0.0002
vn 0.7532 0.6575 -0.0189
vn 0.9468 0.0377 -0.3196
vn 0.7984 0.0392 -0.6009
vn 0.8924 0.2470 -0.3777
vn 0.6966 0.3606 -0.6203
vn 0.6965 0.6222 -0.3574
vn -0.9017 -0.2451 0.3561
vn -0.5996 -0.2907 0.7456
vn -0.6966 -0.3544 0.6237
vn -0.5703 -0.7433 0.3495
vn -0.6966 -0.6255 0.3515
vn -0.3265 -0.2551 0.9101
vn -0.4560 -0.6646 0.5920
vn -0.3340 -0.5947 0.7313
vn -0.4416 -0.8787 0.1811
vn -0.9539 -0.0246 0.2990
vn -0.9209 0.2580 0.2922
vn -0.6458 0.0390 0.7625
vn -0.5355 0.2819 0.7961
vn -0.7874 0.2651 0.5565
vn -0.6524 0.6561 0.3794
vn -0.6562 0.6522 0.3794
vn -0.3072 0.0373 0.9509
vn -0.2980 0.2745 0.9143
vn -0.3242 0.6093 0.7236
vn -0.3732 0.6515 0.6605
vn -0.2041 0.9132 0.3528
vn -0.9533 -0.3018 -0.0127
vn -0.8996 -0.3027 -0.3148
vn -0.6363 -0.7713 -0.0142
vn -0.7498 -0.6616 -0.0140
vn -0.5657 -0.7436 -0.3565
vn -0.7310 -0.6030 -0.3195
vn -0.6916 -0.3550 -0.6290
vn -0.6293 -0.3545 -0.6916
vn -0.3008 -0.9536 -0.0131
vn -0.2902 -0.8907 -0.3500
vn -0.4587 -0.6570 -0.5983
vn -0.3744 -0.6135 -0.6953
vn -0.3185 -0.2562 -0.9126
vn -0.9993 0.0384 0.0004
vn -0.9562 0.2926 -0.0123
vn -0.9229 0.0379 -0.3831
vn -0.9165 0.2977 -0.2673
vn -0.7644 0.6446 -0.0134
vn -0.6388 0.7693 -0.0121
vn -0.7987 -0.0232 -0.6013
vn -0.7893 0.2551 -0.5585
vn -0.7516 0.6015 -0.2708
vn -0.6041 0.7426 -0.2890
vn -0.5761 -0.0241 -0.8170
vn -0.5964 0.4145 -0.6874
vn -0.3099 0.9508 0.0012
vn -0.3729 0.6507 -0.6615
vn -0.2821 0.9173 -0.2811
vn -0.3068 0.0386 -0.9510
vn -0.2986 0.2675 -0.9161
vn -0.3726 0.6301 -0.6813
vn 0.0241 -0.2692 0.9628
vn 0.1373 -0.7105 0.6902
vn 0.0270 -0.6517 0.7580
vn 0.1340 -0.9695 0.2055
vn 0.3377 -0.2346 0.9115
vn 0.2193 -0.7911 0.5710
vn 0.3486 -0.5993 0.7207
vn 0.5481 -0.2816 0.7876
vn 0.2163 -0.9076 0.3599
vn 0.6593 -0.6518 0.3749
vn 0.6711 -0.3937 0.6282
vn 0.6680 -0.6429 0.3747
vn 0.9232 -0.2518 0.2902
vn 0.0431 0.0374 0.9984
vn -0.0183 0.2668 0.9636
vn -0.0248 0.6633 0.7479
vn -0.0292 0.8001 0.5992
vn -0.1110 0.9727 0.2038
vn 0.2960 0.2992 0.9071
vn 0.6570 -0.0230 0.7536
vn 0.6049 0.3028 0.7365
vn 0.3557 0.5919 0.7232
vn 0.3857 0.7535 0.5325
vn 0.5681 0.7483 0.3424
vn 0.4467 0.8763 0.1805
vn 0.7991 0.0388 0.6000
vn 0.7848 0.2594 0.5629
vn 0.9541 0.0366 0.2972
vn 0.9009 0.2546 0.3515
vn 0.7020 0.6233 0.3446
vn -0.0166 -0.9998 -0.0084
vn -0.0100 -0.9288 -0.3704
vn 0.1472 -0.6981 -0.7008
vn 0.0334 -0.6467 -0.7620
vn 0.0241 -0.2687 -0.9629
vn 0.3309 -0.9435 -0.0152
vn 0.6415 -0.7672 -0.0001
vn 0.3051 -0.9097 -0.2818
vn 0.6076 -0.7415 -0.2845
vn 0.2181 -0.7916 -0.5708
vn 0.3834 -0.6093 -0.6941
vn 0.6024 -0.3923 -0.6952
vn 0.3343 -0.2325 -0.9133
vn 0.7735 -0.6336 -0.0143
vn 0.9583 -0.2855 -0.0128
vn 0.7599 -0.5896 -0.2736
vn 0.9191 -0.2909 -0.2658
vn 0.6655 -0.3930 -0.6345
vn 0.0337 0.9993 -0.0163
vn -0.0261 0.7992 -0.6004
vn 0.0282 0.9315 -0.3627
vn 0.0448 0.0384 -0.9983
vn -0.0165 0.2672 -0.9635
vn -0.0258 0.6566 -0.7538
vn 0.6421 0.7664 -0.0196
vn 0.2991 0.9541 -0.0185
vn 0.3863 0.7477 -0.5401
vn 0.2927 0.8897 -0.3503
vn 0.5915 0.0386 -0.8054
vn 0.3056 -0.0225 -0.9519
vn 0.6286 0.3607 -0.6890
vn 0.2968 0.2928 -0.9089
vn 0.3897 0.6056 -0.6938
vn 0.9997 -0.0231 0.0003
vn 0.9522 0.3049 -0.0177
vn 0.7455 0.6664 -0.0094
vn 0.9236 -0.0224 -0.3827
vn 0.7978 0.0385 -0.6017
vn 0.8963 0.3122 -0.3150
vn 0.7864 0.2488 -0.5654
vn 0.7311 0.6039 -0.3175
usemtl None
s off
f 1//1 4//1 3//1
f 5//2 9//2 8//2
f 1//3 9//3 2//3
f 7//4 11//4 10//4
f 11//5 1//5 3//5
f 5//6 13//6 6//6
f 7//7 15//7 8//7
f 15//8 5//8 8//8
f 16//9 7//9 10//9
f 2//10 19//10 4//10
f 19//11 18//11 20//11
f 9//12 21//12 23//12
f 17//13 9//13 23//13
f 23//14 22//14 24//14
f 18//15 23//15 24//15
f 18//16 26//16 20//16
f 26//17 25//17 27//17
f 21//18 13//18 28//18
f 22//19 28//19 29//19
f 22//20 30//20 24//20
f 25//21 30//21 31//21
f 25//22 32//22 27//22
f 33//23 4//23 34//23
f 35//24 34//24 36//24
f 37//25 11//25 38//25
f 11//26 33//26 38//26
f 39//27 38//27 40//27
f 38//28 35//28 40//28
f 41//29 35//29 36//29
f 42//30 41//30 43//30
f 16//31 37//31 44//31
f 44//32 39//32 45//32
f 46//33 39//33 40//33
f 46//34 42//34 47//34
f 48//35 42//35 43//35
f 34//36 19//36 49//36
f 19//37 50//37 49//37
f 36//38 49//38 51//38
f 49//39 52//39 51//39
f 50//40 26//40 53//40
f 53//41 27//41 54//41
f 41//42 51//42 55//42
f 55//43 52//43 56//43
f 52//44 53//44 56//44
f 53//45 57//45 56//45
f 41//46 58//46 43//46
f 55//47 59//47 58//47
f 54//48 32//48 60//48
f 61//49 57//49 62//49
f 57//50 60//50 62//50
f 48//51 58//51 63//51
f 63//52 59//52 64//52
f 59//53 61//53 64//53
f 13//54 65//54 66//54
f 15//55 67//55 68//55
f 65//56 15//56 68//56
f 67//57 16//57 69//57
f 66//58 70//58 71//58
f 68//59 72//59 73//59
f 70//60 68//60 73//60
f 74//61 70//61 73//61
f 72//62 69//62 75//62
f 76//63 72//63 75//63
f 74//64 77//64 78//64
f 77//65 76//65 79//65
f 80//66 77//66 79//66
f 28//67 66//67 81//67
f 29//68 81//68 82//68
f 30//69 82//69 83//69
f 31//70 83//70 84//70
f 31//71 85//71 32//71
f 66//72 86//72 81//72
f 81//73 87//73 82//73
f 88//74 71//74 74//74
f 87//75 88//75 89//75
f 83//76 87//76 89//76
f 83//77 90//77 84//77
f 90//78 91//78 92//78
f 85//79 90//79 92//79
f 88//80 78//80 93//80
f 88//81 94//81 89//81
f 93//82 80//82 95//82
f 94//83 95//83 96//83
f 91//84 94//84 96//84
f 69//85 44//85 97//85
f 98//86 44//86 45//86
f 98//87 46//87 99//87
f 99//88 47//88 100//88
f 100//89 48//89 101//89
f 75//90 97//90 102//90
f 76//91 102//91 103//91
f 104//92 97//92 98//92
f 103//93 104//93 105//93
f 104//94 99//94 105//94
f 107//95 99//95 100//95
f 106//96 107//96 108//96
f 107//97 101//97 108//97
f 109//98 76//98 103//98
f 80//99 109//99 110//99
f 111//100 103//100 105//100
f 110//101 111//101 112//101
f 111//102 106//102 112//102
f 60//103 85//103 113//103
f 114//104 62//104 115//104
f 62//105 113//105 115//105
f 101//106 63//106 116//106
f 116//107 64//107 117//107
f 64//108 114//108 117//108
f 119//109 91//109 118//109
f 85//110 119//110 113//110
f 122//111 118//111 121//111
f 122//112 114//112 115//112
f 113//113 122//113 115//113
f 120//114 108//114 123//114
f 108//115 116//115 123//115
f 124//116 120//116 123//116
f 124//117 116//117 117//117
f 114//118 124//118 117//118
f 95//119 110//119 125//119
f 126//120 95//120 125//120
f 118//121 96//121 126//121
f 127//122 110//122 112//122
f 112//123 120//123 127//123
f 128//124 125//124 127//124
f 128//125 120//125 121//125
f 118//126 128//126 121//126
f 1//127 2//127 4//127
f 5//128 6//128 9//128
f 1//129 8//129 9//129
f 7//130 8//130 11//130
f 11//131 8//131 1//131
f 5//132 12//132 13//132
f 7//133 14//133 15//133
f 15//134 12//134 5//134
f 16//135 14//135 7//135
f 2//136 17//136 19//136
f 19//137 17//137 18//137
f 9//138 6//138 21//138
f 17//13 2//13 9//13
f 23//139 21//139 22//139
f 18//140 17//140 23//140
f 18//141 24//141 26//141
f 26//142 24//142 25//142
f 21//143 6//143 13//143
f 22//144 21//144 28//144
f 22//145 29//145 30//145
f 25//146 24//146 30//146
f 25//147 31//147 32//147
f 33//148 3//148 4//148
f 35//149 33//149 34//149
f 37//150 10//150 11//150
f 11//151 3//151 33//151
f 39//152 37//152 38//152
f 38//153 33//153 35//153
f 41//154 40//154 35//154
f 42//155 40//155 41//155
f 16//156 10//156 37//156
f 44//157 37//157 39//157
f 46//158 45//158 39//158
f 46//159 40//159 42//159
f 48//160 47//160 42//160
f 34//161 4//161 19//161
f 19//162 20//162 50//162
f 36//163 34//163 49//163
f 49//164 50//164 52//164
f 50//165 20//165 26//165
f 53//166 26//166 27//166
f 41//167 36//167 51//167
f 55//168 51//168 52//168
f 52//169 50//169 53//169
f 53//170 54//170 57//170
f 41//171 55//171 58//171
f 55//172 56//172 59//172
f 54//173 27//173 32//173
f 61//174 56//174 57//174
f 57//175 54//175 60//175
f 48//176 43//176 58//176
f 63//177 58//177 59//177
f 59//178 56//178 61//178
f 13//179 12//179 65//179
f 15//180 14//180 67//180
f 65//181 12//181 15//181
f 67//182 14//182 16//182
f 66//183 65//183 70//183
f 68//184 67//184 72//184
f 70//185 65//185 68//185
f 74//186 71//186 70//186
f 72//187 67//187 69//187
f 76//188 73//188 72//188
f 74//189 73//189 77//189
f 77//190 73//190 76//190
f 80//191 78//191 77//191
f 28//192 13//192 66//192
f 29//193 28//193 81//193
f 30//194 29//194 82//194
f 31//195 30//195 83//195
f 31//196 84//196 85//196
f 66//72 71//72 86//72
f 81//197 86//197 87//197
f 88//198 86//198 71//198
f 87//199 86//199 88//199
f 83//200 82//200 87//200
f 83//201 89//201 90//201
f 90//202 89//202 91//202
f 85//203 84//203 90//203
f 88//204 74//204 78//204
f 88//205 93//205 94//205
f 93//206 78//206 80//206
f 94//207 93//207 95//207
f 91//208 89//208 94//208
f 69//209 16//209 44//209
f 98//210 97//210 44//210
f 98//211 45//211 46//211
f 99//212 46//212 47//212
f 100//213 47//213 48//213
f 75//214 69//214 97//214
f 76//215 75//215 102//215
f 104//216 102//216 97//216
f 103//217 102//217 104//217
f 104//218 98//218 99//218
f 107//219 105//219 99//219
f 106//220 105//220 107//220
f 107//221 100//221 101//221
f 109//222 79//222 76//222
f 80//223 79//223 109//223
f 111//224 109//224 103//224
f 110//225 109//225 111//225
f 111//226 105//226 106//226
f 60//227 32//227 85//227
f 114//228 61//228 62//228
f 62//229 60//229 113//229
f 101//230 48//230 63//230
f 116//231 63//231 64//231
f 64//232 61//232 114//232
f 119//233 92//233 91//233
f 85//234 92//234 119//234
f 122//111 119//111 118//111
f 122//235 121//235 114//235
f 113//236 119//236 122//236
f 120//237 106//237 108//237
f 108//238 101//238 116//238
f 124//239 121//239 120//239
f 124//240 123//240 116//240
f 114//241 121//241 124//241
f 95//242 80//242 110//242
f 126//243 96//243 95//243
f 118//244 91//244 96//244
f 127//245 125//245 110//245
f 112//246 106//246 120//246
f 128//247 126//247 125//247
f 128//248 127//248 120//248
f 118//249 126//249 128//249
