# Blender v2.82 (sub 7) OBJ File: ''
# www.blender.org
mtllib untitled7.mtl
o Cube_Cube.041
v -0.036104 0.030370 0.495618
v -0.173478 0.177208 0.350687
v -0.067109 -0.004169 0.340549
v -0.046411 0.193432 0.495620
v -0.173688 0.436846 0.346764
v -0.075093 -0.004216 0.097438
v -0.174040 0.181519 0.093510
v -0.176850 0.440173 0.088893
v -0.054318 0.713378 0.495620
v -0.173501 0.716325 0.346700
v -0.046726 0.955932 0.495620
v -0.174461 0.974632 0.348952
v -0.042442 1.118065 0.495617
v -0.065515 1.143279 0.331727
v -0.176846 0.713221 0.088585
v -0.172587 0.971361 0.091618
v -0.070514 1.143278 0.093538
v -0.073958 -0.003606 -0.155539
v -0.173005 0.184490 -0.179382
v -0.176844 0.441783 -0.181395
v -0.065661 0.000420 -0.360209
v -0.132266 0.151632 -0.479020
v -0.170979 0.444729 -0.438355
v -0.044672 0.291768 -0.575285
v -0.051006 0.469321 -0.576919
v -0.176790 0.712833 -0.182786
v -0.170648 0.968969 -0.181577
v -0.068193 1.142317 -0.154368
v -0.169373 0.711344 -0.438755
v -0.116425 0.991853 -0.466591
v -0.061506 1.137762 -0.350896
v -0.050773 0.684681 -0.576817
v -0.048229 0.857359 -0.574201
v 0.044371 0.030763 0.495575
v 0.045554 0.198176 0.495618
v -0.054433 0.438358 0.495620
v 0.050332 0.440399 0.495619
v 0.075002 -0.004119 0.336545
v 0.163904 0.180123 0.348739
v 0.163340 0.438064 0.344814
v 0.079819 -0.004105 0.096388
v 0.164230 0.184743 0.092838
v 0.166651 0.441183 0.088114
v 0.050551 0.712745 0.495620
v 0.047878 0.952289 0.495620
v 0.061609 1.121312 0.495171
v 0.163276 0.716060 0.344800
v 0.162985 0.971819 0.346214
v 0.076437 1.142701 0.326627
v 0.166641 0.713006 0.087815
v 0.163028 0.968746 0.090872
v 0.077751 1.142127 0.092061
v 0.081899 -0.001927 -0.154064
v 0.163852 0.188556 -0.177755
v 0.166653 0.443156 -0.180572
v 0.082257 0.004833 -0.360638
v 0.131009 0.170560 -0.459999
v 0.161848 0.446915 -0.436125
v 0.051785 0.293603 -0.573003
v 0.053607 0.471944 -0.575290
v 0.166638 0.712417 -0.182082
v 0.161763 0.965535 -0.179942
v 0.079296 1.138674 -0.152265
v 0.160201 0.710441 -0.436477
v 0.138795 0.990499 -0.465982
v 0.083827 1.132344 -0.349096
v 0.053904 0.683646 -0.574286
v 0.058677 0.855866 -0.568226
vt 0.375000 0.000000
vt 0.375000 0.000000
vt 0.375000 0.000000
vt 0.375000 0.000000
vt 0.375000 0.000000
vt 0.375000 0.000000
vt 0.375000 0.000000
vt 0.375000 0.000000
vt 0.375000 0.000000
vt 0.375000 0.000000
vt 0.375000 0.000000
vt 0.375000 0.000000
vt 0.375000 0.000000
vt 0.375000 0.000000
vt 0.375000 0.000000
vt 0.375000 0.000000
vt 0.375000 0.000000
vt 0.375000 0.000000
vt 0.375000 0.000000
vt 0.375000 0.000000
vt 0.375000 0.000000
vt 0.375000 0.000000
vt 0.375000 0.000000
vt 0.375000 0.000000
vt 0.375000 0.000000
vt 0.375000 0.000000
vt 0.375000 0.000000
vt 0.375000 0.000000
vt 0.375000 0.000000
vt 0.375000 0.000000
vt 0.375000 0.000000
vt 0.375000 0.000000
vt 0.375000 0.000000
vt 0.375000 0.000000
vt 0.375000 0.000000
vt 0.375000 0.000000
vt 0.375000 0.000000
vt 0.375000 0.000000
vt 0.375000 0.000000
vt 0.375000 0.000000
vt 0.375000 0.000000
vt 0.375000 0.000000
vt 0.375000 0.000000
vt 0.375000 0.000000
vt 0.375000 0.000000
vt 0.375000 0.000000
vt 0.375000 0.000000
vt 0.375000 0.000000
vt 0.375000 0.000000
vt 0.375000 0.000000
vt 0.375000 0.000000
vt 0.375000 0.000000
vt 0.375000 0.000000
vt 0.375000 0.000000
vt 0.375000 0.000000
vt 0.375000 0.000000
vt 0.375000 0.000000
vt 0.375000 0.000000
vt 0.375000 0.000000
vt 0.375000 0.000000
vt 0.375000 0.000000
vt 0.375000 0.000000
vt 0.375000 0.000000
vt 0.375000 0.000000
vt 0.375000 0.000000
vt 0.375000 0.000000
vt 0.375000 0.000000
vt 0.375000 0.000000
vn -0.8225 -0.4977 0.2753
vn -0.7524 0.0093 0.6586
vn -0.8824 -0.4704 -0.0059
vn -0.8825 -0.4703 -0.0060
vn -0.8839 -0.4676 -0.0075
vn -1.0000 -0.0057 0.0071
vn -1.0000 -0.0080 0.0052
vn -0.9999 0.0004 0.0127
vn -0.7806 0.0005 0.6251
vn -0.7806 0.0005 0.6250
vn -0.7807 0.0007 0.6249
vn -0.7546 -0.0085 0.6561
vn -0.8139 0.5460 0.1986
vn -0.9999 0.0003 0.0126
vn -0.9999 0.0000 0.0130
vn -0.9998 0.0163 0.0128
vn -0.8598 0.5103 0.0180
vn -0.8827 -0.4700 -0.0054
vn -0.8844 -0.4667 -0.0084
vn -0.9999 -0.0130 -0.0020
vn -0.9999 -0.0129 -0.0021
vn -0.9999 -0.0149 -0.0001
vn -0.8907 -0.4488 -0.0719
vn -0.9861 -0.1134 -0.1216
vn -0.7527 -0.0329 -0.6575
vn -1.0000 0.0001 -0.0001
vn -1.0000 0.0002 -0.0002
vn -0.9997 0.0236 -0.0002
vn -0.9998 0.0204 -0.0036
vn -0.9997 0.0240 -0.0002
vn -0.8599 0.5103 -0.0103
vn -0.8600 0.5102 -0.0104
vn -0.8601 0.5100 -0.0106
vn -0.9996 0.0062 -0.0285
vn -0.9997 0.0031 -0.0260
vn -0.9996 0.0060 -0.0290
vn -0.9711 0.1663 -0.1714
vn -0.8879 0.4401 -0.1336
vn -0.7581 0.0035 -0.6521
vn -0.7563 0.0014 -0.6542
vn -0.7561 0.0011 -0.6545
vn -0.7564 0.0210 -0.6538
vn 0.0001 -0.0001 1.0000
vn 0.0004 -0.0001 1.0000
vn 0.0000 -0.0001 1.0000
vn 0.0000 -0.0000 1.0000
vn 0.0056 -0.9764 0.2160
vn 0.0052 -0.9763 0.2163
vn 0.0064 -0.9765 0.2154
vn 0.8625 -0.4335 0.2612
vn 0.7793 0.0112 0.6266
vn 0.0005 -1.0000 0.0001
vn 0.0005 -1.0000 -0.0000
vn 0.0074 -1.0000 -0.0064
vn 0.9129 -0.4077 0.0183
vn 0.9999 -0.0092 0.0128
vn 0.0026 0.0014 1.0000
vn 0.0006 0.0003 1.0000
vn 0.0042 0.0023 1.0000
vn 0.8005 -0.0002 0.5993
vn 0.8008 0.0002 0.5989
vn 0.8009 0.0079 0.5988
vn 0.7923 -0.0025 0.6101
vn 0.8775 0.4600 0.1356
vn 0.0094 0.9885 0.1508
vn 0.9999 0.0001 0.0130
vn 1.0000 0.0001 0.0000
vn 0.9998 0.0140 0.0129
vn 0.8973 0.4413 0.0039
vn 0.8973 0.4413 0.0016
vn 0.8973 0.4413 0.0017
vn 0.0054 1.0000 -0.0010
vn 0.0072 1.0000 -0.0021
vn 0.0076 1.0000 -0.0035
vn 0.0020 -1.0000 -0.0031
vn 0.0109 -0.9999 -0.0086
vn 0.9183 -0.3959 -0.0069
vn 0.9183 -0.3959 -0.0073
vn 0.9181 -0.3963 -0.0108
vn 0.9999 -0.0102 -0.0008
vn 0.9999 -0.0103 -0.0008
vn 0.9999 -0.0110 -0.0001
vn 0.0297 -0.9990 -0.0326
vn 0.9400 -0.3295 -0.0884
vn 0.1002 -0.5870 -0.8033
vn 0.9889 -0.1010 -0.1086
vn 0.0303 -0.6655 -0.7458
vn 0.7879 -0.0159 -0.6157
vn 0.0169 -0.0123 -0.9998
vn 0.0226 -0.0090 -0.9997
vn 0.0159 -0.0130 -0.9998
vn 1.0000 0.0000 -0.0000
vn 0.9999 0.0168 -0.0024
vn 0.9998 0.0194 -0.0005
vn 0.9998 0.0193 -0.0001
vn 0.9022 0.4312 -0.0093
vn 0.0249 0.9996 -0.0148
vn 0.0249 0.9996 -0.0140
vn 0.0250 0.9995 -0.0214
vn 0.9996 0.0080 -0.0252
vn 0.9997 0.0062 -0.0253
vn 0.9995 0.0176 -0.0253
vn 0.9949 0.0683 -0.0739
vn 0.9202 0.3895 -0.0399
vn 0.0326 0.6134 -0.7891
vn 0.0376 0.9988 -0.0313
vn 0.7898 0.0025 -0.6134
vn 0.7913 0.0039 -0.6114
vn 0.7895 0.0018 -0.6137
vn 0.0227 0.0040 -0.9997
vn 0.0170 0.0012 -0.9999
vn 0.0242 0.0047 -0.9997
vn 0.7916 -0.0009 -0.6110
vn 0.7907 -0.0029 -0.6122
vn 0.0562 0.0336 -0.9979
vn 0.0518 0.6398 -0.7668
vn -0.7485 -0.0473 0.6615
vn -0.7801 -0.0255 0.6252
vn -0.8616 -0.5069 0.0284
vn -1.0000 -0.0008 0.0022
vn -0.7804 0.0003 0.6252
vn -0.7803 0.0244 0.6250
vn -0.7527 0.0199 0.6581
vn -1.0000 -0.0037 -0.0072
vn -0.8405 0.5416 -0.0130
vn -0.9999 -0.0109 -0.0039
vn -0.8816 -0.4699 -0.0450
vn -0.9996 -0.0151 -0.0230
vn -0.7370 -0.0036 -0.6759
vn -1.0000 0.0000 -0.0000
vn -0.9998 0.0166 -0.0072
vn -0.8598 0.5106 -0.0100
vn -0.9997 0.0001 -0.0228
vn -0.9993 0.0241 -0.0291
vn -0.8573 0.5132 -0.0411
vn -0.7582 0.0036 -0.6520
vn -0.7878 0.0882 -0.6095
vn 0.0005 0.0000 1.0000
vn 0.0049 -0.9763 0.2165
vn 0.7783 -0.0057 0.6278
vn 0.8000 -0.0158 0.5998
vn 0.0004 -1.0000 0.0002
vn 0.9008 -0.4342 -0.0067
vn 1.0000 0.0022 0.0013
vn 0.8002 -0.0006 0.5997
vn 0.8009 0.0089 0.5988
vn 0.7946 -0.0629 0.6039
vn -0.0304 0.9919 0.1232
vn 0.9999 0.0002 0.0129
vn 1.0000 0.0011 0.0002
vn 0.8923 0.4513 -0.0053
vn 0.0041 1.0000 -0.0001
vn 0.9130 -0.4080 0.0040
vn 1.0000 -0.0095 -0.0015
vn 0.0110 -0.9998 -0.0192
vn 0.9180 -0.3964 -0.0114
vn 0.0129 -0.5170 -0.8559
vn 0.9997 -0.0110 -0.0197
vn 0.9998 -0.0002 -0.0198
vn 0.9998 -0.0112 -0.0190
vn 0.1006 -0.6053 -0.7896
vn 0.7987 -0.0373 -0.6005
vn 0.0238 -0.0084 -0.9997
vn 0.9999 0.0142 -0.0048
vn 0.8973 0.4414 -0.0006
vn 0.0077 1.0000 -0.0038
vn 0.9998 -0.0000 -0.0188
vn 0.9995 0.0195 -0.0254
vn 0.9032 0.4291 0.0070
vn 0.0052 0.6371 -0.7707
vn 0.0250 0.9994 -0.0223
vn 0.0156 0.0005 -0.9999
vn 0.7898 -0.0042 -0.6133
vn 0.0243 0.0148 -0.9996
vn 0.0051 0.6029 -0.7978
usemtl None.028
s 1
f 1/1/1 2/2/1 3/3/1
f 4/4/2 5/5/2 2/2/2
f 6/6/3 2/2/4 7/7/5
f 7/7/6 5/5/7 8/8/8
f 5/5/9 9/9/10 10/10/11
f 10/10/12 11/11/12 12/12/12
f 12/12/13 13/13/13 14/14/13
f 8/8/8 10/10/14 15/15/15
f 10/10/16 16/16/16 15/15/16
f 16/16/17 14/14/17 17/17/17
f 18/18/18 7/7/5 19/19/19
f 19/19/20 8/8/21 20/20/22
f 21/21/23 19/19/23 22/22/23
f 19/19/24 23/23/24 22/22/24
f 24/24/25 23/23/25 25/25/25
f 20/20/26 15/15/26 26/26/27
f 15/15/28 27/27/29 26/26/30
f 16/16/31 28/28/32 27/27/33
f 23/23/34 26/26/35 29/29/36
f 29/29/37 27/27/37 30/30/37
f 27/27/38 31/31/38 30/30/38
f 23/23/39 32/32/40 25/25/41
f 29/29/42 33/33/42 32/32/42
f 4/4/43 34/34/44 35/35/45
f 36/36/46 35/35/45 37/37/46
f 34/34/47 3/3/48 38/38/49
f 39/39/50 34/34/50 38/38/50
f 40/40/51 35/35/51 39/39/51
f 38/38/52 6/6/53 41/41/54
f 42/42/55 38/38/55 41/41/55
f 40/40/56 42/42/56 43/43/56
f 9/9/46 37/37/46 44/44/46
f 9/9/46 45/45/57 11/11/46
f 13/13/58 45/45/57 46/46/59
f 44/44/60 40/40/61 47/47/62
f 45/45/63 47/47/63 48/48/63
f 46/46/64 48/48/64 49/49/64
f 13/13/65 49/49/65 14/14/65
f 47/47/66 43/43/66 50/50/67
f 51/51/68 47/47/68 50/50/68
f 49/49/69 51/51/70 52/52/71
f 17/17/72 49/49/73 52/52/74
f 41/41/54 18/18/75 53/53/76
f 42/42/77 53/53/78 54/54/79
f 43/43/80 54/54/81 55/55/82
f 53/53/83 21/21/83 56/56/83
f 54/54/84 56/56/84 57/57/84
f 57/57/85 21/21/85 22/22/85
f 58/58/86 54/54/86 57/57/86
f 57/57/87 24/24/87 59/59/87
f 58/58/88 59/59/88 60/60/88
f 59/59/89 25/25/90 60/60/91
f 50/50/67 55/55/92 61/61/67
f 62/62/93 50/50/94 61/61/95
f 63/63/96 51/51/96 62/62/96
f 28/28/97 52/52/98 63/63/99
f 61/61/100 58/58/101 64/64/102
f 62/62/103 64/64/103 65/65/103
f 66/66/104 62/62/104 65/65/104
f 66/66/105 30/30/105 31/31/105
f 31/31/106 63/63/106 66/66/106
f 67/67/107 58/58/108 60/60/109
f 60/60/110 32/32/111 67/67/112
f 68/68/113 64/64/114 67/67/107
f 67/67/115 33/33/115 68/68/115
f 30/30/116 68/68/116 33/33/116
f 1/1/117 4/4/117 2/2/117
f 4/4/118 36/36/118 5/5/118
f 6/6/119 3/3/119 2/2/119
f 7/7/6 2/2/120 5/5/7
f 5/5/9 36/36/121 9/9/10
f 10/10/122 9/9/122 11/11/122
f 12/12/123 11/11/123 13/13/123
f 8/8/8 5/5/7 10/10/14
f 10/10/124 12/12/124 16/16/124
f 16/16/125 12/12/125 14/14/125
f 18/18/18 6/6/3 7/7/5
f 19/19/20 7/7/126 8/8/21
f 21/21/127 18/18/127 19/19/127
f 19/19/128 20/20/128 23/23/128
f 24/24/129 22/22/129 23/23/129
f 20/20/26 8/8/130 15/15/26
f 15/15/28 16/16/131 27/27/29
f 16/16/31 17/17/132 28/28/32
f 23/23/34 20/20/133 26/26/35
f 29/29/134 26/26/134 27/27/134
f 27/27/135 28/28/135 31/31/135
f 23/23/39 29/29/136 32/32/40
f 29/29/137 30/30/137 33/33/137
f 4/4/43 1/1/138 34/34/44
f 36/36/46 4/4/43 35/35/45
f 34/34/47 1/1/139 3/3/48
f 39/39/140 35/35/140 34/34/140
f 40/40/141 37/37/141 35/35/141
f 38/38/52 3/3/142 6/6/53
f 42/42/143 39/39/143 38/38/143
f 40/40/144 39/39/144 42/42/144
f 9/9/46 36/36/46 37/37/46
f 9/9/46 44/44/46 45/45/57
f 13/13/58 11/11/46 45/45/57
f 44/44/60 37/37/145 40/40/61
f 45/45/146 44/44/60 47/47/62
f 46/46/147 45/45/147 48/48/147
f 13/13/148 46/46/148 49/49/148
f 47/47/66 40/40/149 43/43/66
f 51/51/150 48/48/150 47/47/150
f 49/49/151 48/48/151 51/51/151
f 17/17/72 14/14/152 49/49/73
f 41/41/54 6/6/53 18/18/75
f 42/42/153 41/41/153 53/53/153
f 43/43/80 42/42/154 54/54/81
f 53/53/155 18/18/155 21/21/155
f 54/54/79 53/53/78 56/56/156
f 57/57/157 56/56/157 21/21/157
f 58/58/158 55/55/159 54/54/160
f 57/57/161 22/22/161 24/24/161
f 58/58/162 57/57/162 59/59/162
f 59/59/89 24/24/163 25/25/90
f 50/50/67 43/43/66 55/55/92
f 62/62/93 51/51/164 50/50/94
f 63/63/165 52/52/71 51/51/70
f 28/28/166 17/17/72 52/52/74
f 61/61/167 55/55/159 58/58/158
f 62/62/168 61/61/100 64/64/102
f 66/66/169 63/63/169 62/62/169
f 66/66/170 65/65/170 30/30/170
f 31/31/171 28/28/97 63/63/99
f 67/67/107 64/64/114 58/58/108
f 60/60/110 25/25/172 32/32/111
f 68/68/113 65/65/173 64/64/114
f 67/67/174 32/32/174 33/33/174
f 30/30/175 65/65/175 68/68/175
