# Blender v2.82 (sub 7) OBJ File: ''
# www.blender.org
mtllib untitled3.mtl
o Cube_Cube.017
v -0.967451 0.072449 0.867327
v -0.977289 0.356225 0.583743
v -0.971287 0.060117 0.595386
v -0.690653 0.343601 0.971940
v -0.971050 0.343669 0.882401
v -0.684180 -0.003627 0.592556
v -0.418669 0.001538 0.942477
v -0.405913 0.345523 0.973691
v -0.404194 -0.004218 0.591717
v -0.116738 0.001409 0.943156
v -0.113148 0.346187 0.973695
v -0.112773 -0.004218 0.591578
v -0.977290 0.609222 0.583361
v -0.962407 0.894121 0.861909
v -0.960355 0.897259 0.591396
v -0.691022 0.624415 0.971730
v -0.971747 0.626580 0.882573
v -0.712740 0.951043 0.922070
v -0.679188 0.951690 0.588469
v -0.405913 0.619061 0.973387
v -0.416099 0.952058 0.928082
v -0.402373 0.952059 0.587439
v -0.113091 0.616482 0.973473
v -0.116009 0.952059 0.930862
v -0.112241 0.952059 0.587527
v -0.977290 0.356629 0.327415
v -0.972283 0.059558 0.311058
v -0.961735 0.078390 0.043955
v -0.960910 0.347550 0.036652
v -0.684353 -0.003633 0.317624
v -0.710816 0.024707 -0.010070
v -0.686314 0.347011 -0.044266
v -0.404099 -0.004218 0.321590
v -0.416065 0.016239 -0.017416
v -0.404255 0.349014 -0.045802
v -0.112690 -0.004218 0.323241
v -0.115992 0.014264 -0.018544
v -0.112650 0.349693 -0.045846
v -0.977290 0.609774 0.326887
v -0.959767 0.897010 0.312054
v -0.960656 0.625837 0.036666
v -0.955028 0.890803 0.046663
v -0.679297 0.951677 0.319446
v -0.686554 0.622619 -0.044093
v -0.706608 0.938889 -0.003654
v -0.402226 0.952059 0.323541
v -0.404178 0.616964 -0.045666
v -0.414505 0.947036 -0.013624
v -0.112142 0.952059 0.325188
v -0.112577 0.614623 -0.045693
v -0.115445 0.947204 -0.014477
v 0.187011 0.001536 0.942861
v 0.184588 0.346040 0.973680
v 0.184286 -0.004218 0.591616
v 0.481213 0.344961 0.973603
v 0.479297 -0.004218 0.591852
v 0.494287 0.002042 0.941391
v 0.772433 0.343117 0.970938
v 0.764814 -0.003174 0.592430
v 1.041157 0.084541 0.854871
v 1.045435 0.347158 0.871461
v 1.043937 0.071576 0.591362
v 1.045547 0.359762 0.579932
v 0.184740 0.616235 0.973471
v 0.187169 0.952059 0.931364
v 0.184314 0.952059 0.587713
v 0.481690 0.618916 0.973386
v 0.493478 0.952013 0.928771
v 0.478472 0.952059 0.587806
v 0.773842 0.625458 0.970660
v 0.799345 0.946789 0.917444
v 0.761338 0.951332 0.588305
v 1.045440 0.625621 0.869884
v 1.035738 0.881134 0.845504
v 1.045547 0.607525 0.579101
v 1.037420 0.889883 0.587291
v 0.184421 -0.004218 0.323212
v 0.187179 0.014018 -0.019006
v 0.184624 0.349718 -0.045854
v 0.479720 -0.004217 0.321124
v 0.493371 0.016038 -0.018445
v 0.480466 0.349055 -0.045831
v 0.766087 -0.003103 0.316102
v 0.798439 0.026328 -0.010100
v 0.769335 0.347430 -0.043490
v 1.043660 0.073434 0.312080
v 1.045547 0.360662 0.328892
v 1.035346 0.094495 0.055851
v 1.037618 0.351867 0.044461
v 0.184447 0.952059 0.325341
v 0.184783 0.614600 -0.045671
v 0.187421 0.947035 -0.014201
v 0.478821 0.952059 0.323513
v 0.480950 0.617422 -0.045560
v 0.493112 0.946644 -0.012850
v 0.762258 0.951350 0.318052
v 0.770617 0.624462 -0.043236
v 0.797298 0.940208 -0.004464
v 1.045547 0.608442 0.328067
v 1.037289 0.889851 0.311559
v 1.037903 0.626144 0.044460
v 1.032999 0.880181 0.057177
v -0.717801 0.008207 0.933973
v 0.802730 0.009891 0.931419
vt 0.375000 0.000000
vt 0.375000 0.000000
vt 0.375000 0.000000
vt 0.375000 0.000000
vt 0.375000 0.000000
vt 0.375000 0.000000
vt 0.375000 0.000000
vt 0.375000 0.000000
vt 0.375000 0.000000
vt 0.375000 0.000000
vt 0.375000 0.000000
vt 0.375000 0.000000
vt 0.375000 0.000000
vt 0.375000 0.000000
vt 0.375000 0.000000
vt 0.375000 0.000000
vt 0.375000 0.000000
vt 0.375000 0.000000
vt 0.375000 0.000000
vt 0.375000 0.000000
vt 0.375000 0.000000
vt 0.375000 0.000000
vt 0.375000 0.000000
vt 0.375000 0.000000
vt 0.375000 0.000000
vt 0.375000 0.000000
vt 0.375000 0.000000
vt 0.375000 0.000000
vt 0.375000 0.000000
vt 0.375000 0.000000
vt 0.375000 0.000000
vt 0.375000 0.000000
vt 0.375000 0.000000
vt 0.375000 0.000000
vt 0.375000 0.000000
vt 0.375000 0.000000
vt 0.375000 0.000000
vt 0.375000 0.000000
vt 0.375000 0.000000
vt 0.375000 0.000000
vt 0.375000 0.000000
vt 0.375000 0.000000
vt 0.375000 0.000000
vt 0.375000 0.000000
vt 0.375000 0.000000
vt 0.375000 0.000000
vt 0.375000 0.000000
vt 0.375000 0.000000
vt 0.375000 0.000000
vt 0.375000 0.000000
vt 0.375000 0.000000
vt 0.375000 0.000000
vt 0.375000 0.000000
vt 0.375000 0.000000
vt 0.375000 0.000000
vt 0.375000 0.000000
vt 0.375000 0.000000
vt 0.375000 0.000000
vt 0.375000 0.000000
vt 0.375000 0.000000
vt 0.375000 0.000000
vt 0.375000 0.000000
vt 0.375000 0.000000
vt 0.375000 0.000000
vt 0.375000 0.000000
vt 0.375000 0.000000
vt 0.375000 0.000000
vt 0.375000 0.000000
vt 0.375000 0.000000
vt 0.375000 0.000000
vt 0.375000 0.000000
vt 0.375000 0.000000
vt 0.375000 0.000000
vt 0.375000 0.000000
vt 0.375000 0.000000
vt 0.375000 0.000000
vt 0.375000 0.000000
vt 0.375000 0.000000
vt 0.375000 0.000000
vt 0.375000 0.000000
vt 0.375000 0.000000
vt 0.375000 0.000000
vt 0.375000 0.000000
vt 0.375000 0.000000
vt 0.375000 0.000000
vt 0.375000 0.000000
vt 0.375000 0.000000
vt 0.375000 0.000000
vt 0.375000 0.000000
vt 0.375000 0.000000
vt 0.375000 0.000000
vt 0.375000 0.000000
vt 0.375000 0.000000
vt 0.375000 0.000000
vt 0.375000 0.000000
vt 0.375000 0.000000
vt 0.375000 0.000000
vt 0.375000 0.000000
vt 0.375000 0.000000
vt 0.375000 0.000000
vt 0.375000 0.000000
vt 0.375000 0.000000
vt 0.375000 0.000000
vt 0.375000 0.000000
vn -0.9997 -0.0170 0.0177
vn -0.9997 -0.0170 0.0176
vn -0.9997 -0.0197 0.0150
vn -0.3037 -0.0569 0.9511
vn -0.2161 -0.9752 0.0473
vn -0.0055 -0.0902 0.9959
vn -0.0050 -0.0903 0.9959
vn -0.0006 -0.0893 0.9960
vn -0.0019 -0.9999 0.0163
vn -0.0021 -0.9999 0.0163
vn -0.0001 -0.9999 0.0162
vn -0.0017 -0.0893 0.9960
vn 0.0003 -0.0885 0.9961
vn -0.0002 -0.9999 0.0162
vn 0.0001 -0.9999 0.0161
vn -0.9998 -0.0004 0.0210
vn -0.9998 -0.0012 0.0198
vn -0.9998 0.0000 0.0209
vn -0.9982 0.0589 -0.0058
vn -0.9982 0.0589 -0.0069
vn -0.9982 0.0597 -0.0009
vn -0.3034 -0.0005 0.9529
vn -0.3035 -0.0005 0.9528
vn -0.3027 -0.0013 0.9531
vn -0.2599 0.1282 0.9571
vn -0.1900 0.9817 0.0099
vn -0.1901 0.9817 0.0084
vn -0.1908 0.9816 -0.0006
vn -0.0060 0.0009 1.0000
vn -0.0058 0.0007 1.0000
vn -0.0205 0.1489 0.9886
vn -0.0018 1.0000 0.0003
vn -0.0029 1.0000 0.0009
vn -0.0001 1.0000 0.0000
vn -0.0002 0.0009 1.0000
vn -0.0001 0.0009 1.0000
vn -0.0067 0.1275 0.9918
vn -0.0051 0.1338 0.9910
vn -0.0041 0.1346 0.9909
vn -0.0000 1.0000 0.0000
vn -0.9998 -0.0201 0.0001
vn -0.9998 -0.0187 0.0017
vn -0.9998 -0.0170 0.0035
vn -0.9984 0.0015 -0.0563
vn -0.9984 0.0013 -0.0562
vn -0.9984 0.0002 -0.0567
vn -0.2156 -0.9765 0.0014
vn -0.2155 -0.9765 0.0015
vn -0.2144 -0.9767 0.0027
vn -0.2224 -0.9727 -0.0662
vn -0.2826 -0.0252 -0.9589
vn -0.0020 -1.0000 -0.0000
vn -0.0021 -1.0000 0.0000
vn -0.0307 -0.9960 -0.0837
vn -0.0045 -0.0848 -0.9964
vn -0.0048 -0.0848 -0.9964
vn -0.0011 -0.0822 -0.9966
vn 0.0000 -1.0000 -0.0000
vn -0.0044 -0.9982 -0.0592
vn -0.0055 -0.9984 -0.0558
vn -0.0020 -0.9982 -0.0602
vn -0.0021 -0.0846 -0.9964
vn -0.0011 -0.0803 -0.9968
vn -1.0000 -0.0000 0.0000
vn -0.9982 0.0597 -0.0010
vn -0.9981 0.0608 -0.0022
vn -0.9984 0.0004 -0.0567
vn -0.9984 0.0009 -0.0572
vn -0.9996 0.0219 -0.0184
vn -0.1907 0.9817 -0.0006
vn -0.1913 0.9815 -0.0013
vn -0.2826 0.0003 -0.9592
vn -0.2178 0.1102 -0.9698
vn -0.1911 0.9812 -0.0265
vn -0.1924 0.9810 -0.0244
vn -0.1944 0.9807 -0.0224
vn -0.0013 1.0000 0.0000
vn -0.0014 1.0000 -0.0000
vn -0.0056 0.0005 -1.0000
vn -0.0055 0.0006 -1.0000
vn -0.0056 0.0006 -1.0000
vn -0.0373 0.1244 -0.9915
vn -0.0291 0.9989 -0.0371
vn -0.0001 0.0006 -1.0000
vn -0.0002 0.0006 -1.0000
vn -0.0019 0.0958 -0.9954
vn -0.0001 0.0946 -0.9955
vn -0.0031 0.0965 -0.9953
vn -0.0002 0.9999 -0.0147
vn -0.0002 0.9999 -0.0146
vn -0.0008 0.9999 -0.0149
vn -0.0008 -0.0885 0.9961
vn -0.0000 -0.0891 0.9960
vn 0.0006 -0.9999 0.0167
vn -0.0000 -0.9999 0.0164
vn 0.0013 -0.0910 0.9958
vn 0.0005 -0.9999 0.0172
vn 0.0079 -0.0932 0.9956
vn 0.0085 -0.0932 0.9956
vn 0.0036 -0.9998 0.0178
vn 0.0034 -0.9998 0.0178
vn 0.3425 -0.0648 0.9373
vn 0.2585 -0.9647 0.0502
vn 1.0000 -0.0039 0.0068
vn 0.9999 -0.0052 0.0108
vn 1.0000 -0.0061 -0.0005
vn 0.0000 0.0008 1.0000
vn 0.0002 0.0008 1.0000
vn -0.0012 0.1252 0.9921
vn -0.0016 0.1229 0.9924
vn 0.0003 0.0008 1.0000
vn 0.0093 0.0009 1.0000
vn 0.0027 0.1252 0.9921
vn 0.0066 0.1325 0.9912
vn 0.0092 0.0009 1.0000
vn 0.0393 0.1602 0.9863
vn 0.0022 1.0000 -0.0000
vn 0.0025 1.0000 0.0000
vn 0.3450 0.0022 0.9386
vn 0.3452 0.0023 0.9385
vn 0.3479 0.0053 0.9375
vn 0.3215 0.1298 0.9380
vn 1.0000 -0.0000 0.0002
vn 1.0000 -0.0000 0.0004
vn 0.9994 0.0332 0.0027
vn 0.9993 0.0361 0.0043
vn 0.9996 0.0291 -0.0002
vn 0.2173 0.9755 0.0345
vn -0.0013 -0.9986 -0.0522
vn -0.0004 -0.9986 -0.0537
vn 0.0002 -0.0807 -0.9967
vn -0.0001 -0.0797 -0.9968
vn 0.0001 -1.0000 -0.0000
vn 0.0038 -1.0000 -0.0001
vn 0.0045 -0.9985 -0.0539
vn 0.0034 -0.9982 -0.0594
vn 0.0008 -0.0809 -0.9967
vn 0.0039 -1.0000 -0.0002
vn 0.0359 -0.9956 -0.0863
vn 0.0076 -0.0817 -0.9966
vn 0.0068 -0.0818 -0.9966
vn 0.2580 -0.9661 -0.0001
vn 0.2648 -0.9643 -0.0072
vn 0.2657 -0.9640 -0.0067
vn 1.0000 -0.0031 -0.0003
vn 1.0000 -0.0065 -0.0010
vn 0.2908 -0.9551 -0.0573
vn 0.9995 -0.0083 -0.0306
vn 0.9995 -0.0073 -0.0302
vn 0.9996 -0.0006 -0.0275
vn 0.3119 -0.0448 -0.9491
vn 0.0001 0.0007 -1.0000
vn 0.0001 0.0008 -1.0000
vn 0.0014 0.0952 -0.9955
vn 0.0006 0.0937 -0.9956
vn 0.0002 0.9999 -0.0144
vn 0.0005 0.9999 -0.0150
vn 0.0025 1.0000 0.0001
vn 0.0002 0.0008 -1.0000
vn 0.0080 0.0010 -1.0000
vn 0.0007 0.0958 -0.9954
vn 0.0054 0.0987 -0.9951
vn 0.0003 0.9999 -0.0153
vn 0.0021 0.9999 -0.0160
vn 0.0081 0.0009 -1.0000
vn 0.0080 0.0009 -1.0000
vn 0.0299 0.1193 -0.9924
vn 0.0220 0.9992 -0.0321
vn 1.0000 0.0000 0.0000
vn 0.9996 0.0290 -0.0002
vn 0.9996 0.0293 -0.0005
vn 0.2177 0.9760 0.0003
vn 0.2178 0.9760 0.0003
vn 0.2182 0.9759 -0.0002
vn 0.9996 -0.0006 -0.0274
vn 0.9996 -0.0010 -0.0270
vn 0.3116 -0.0004 -0.9502
vn 0.3116 -0.0005 -0.9502
vn 0.3117 -0.0003 -0.9502
vn 0.9996 0.0204 -0.0179
vn 0.9996 0.0202 -0.0176
vn 0.2743 0.0943 -0.9570
vn 0.2484 0.9686 -0.0065
vn -0.9997 -0.0144 0.0203
vn -0.2775 -0.0859 0.9569
vn -0.2514 -0.9678 0.0088
vn -0.0307 -0.1100 0.9935
vn -0.0232 -0.9992 0.0323
vn -0.9998 -0.0025 0.0187
vn -0.9992 0.0361 0.0164
vn -0.3042 0.0003 0.9526
vn -0.3010 0.0839 0.9499
vn -0.2177 0.9758 -0.0200
vn -0.0032 0.1347 0.9909
vn -0.0035 1.0000 0.0016
vn -0.9998 -0.0203 -0.0000
vn -0.9991 -0.0146 -0.0405
vn -0.2167 -0.9762 0.0002
vn -0.2121 -0.9742 -0.0771
vn -0.2272 -0.0857 -0.9701
vn -0.0012 -0.9982 -0.0602
vn -0.0277 -0.1034 -0.9943
vn -0.9969 0.0580 -0.0539
vn -0.2827 0.0004 -0.9592
vn -0.2819 0.0422 -0.9585
vn -0.1906 0.9813 -0.0264
vn -0.0036 0.0965 -0.9953
vn -0.0012 0.9999 -0.0149
vn 0.0350 -0.1146 0.9928
vn 0.0266 -0.9990 0.0355
vn 0.3278 -0.0818 0.9412
vn 0.2997 -0.9540 0.0032
vn 0.9999 -0.0163 -0.0003
vn -0.0004 0.1244 0.9922
vn 0.0063 0.1325 0.9912
vn 0.0175 0.9998 0.0118
vn 0.3424 -0.0008 0.9396
vn 0.3460 0.1021 0.9327
vn 0.9993 0.0378 -0.0020
vn 0.2628 0.9647 -0.0170
vn -0.0002 -0.9986 -0.0532
vn 0.0028 -0.9982 -0.0594
vn 0.0306 -0.1006 -0.9945
vn 0.2587 -0.9660 0.0009
vn 0.2636 -0.9606 -0.0875
vn 0.9995 -0.0046 -0.0328
vn 0.2870 -0.0733 -0.9551
vn -0.0002 0.0942 -0.9955
vn -0.0000 0.9999 -0.0148
vn 0.0056 0.0987 -0.9951
vn 0.0022 0.9999 -0.0160
vn 0.2173 0.9761 0.0008
vn 0.3115 -0.0006 -0.9502
vn 0.9993 0.0278 -0.0252
vn 0.3110 0.0535 -0.9489
vn 0.2171 0.9753 -0.0407
usemtl None.024
s 1
f 1/1/1 2/2/2 3/3/3
f 1/1/4 4/4/4 5/5/4
f 6/6/5 1/1/5 3/3/5
f 4/4/6 7/7/7 8/8/8
f 7/7/9 6/6/10 9/9/11
f 8/8/8 10/10/12 11/11/13
f 10/10/14 9/9/11 12/12/15
f 5/5/16 13/13/17 2/2/18
f 13/13/19 14/14/20 15/15/21
f 5/5/22 16/16/23 17/17/24
f 14/14/25 16/16/25 18/18/25
f 14/14/26 19/19/27 15/15/28
f 4/4/29 20/20/29 16/16/30
f 16/16/31 21/21/31 18/18/31
f 19/19/32 21/21/33 22/22/34
f 8/8/35 23/23/36 20/20/29
f 20/20/37 24/24/38 21/21/39
f 22/22/34 24/24/40 25/25/40
f 3/3/41 26/26/42 27/27/43
f 28/28/44 26/26/45 29/29/46
f 30/30/47 3/3/48 27/27/49
f 30/30/50 28/28/50 31/31/50
f 32/32/51 28/28/51 29/29/51
f 33/33/52 6/6/53 30/30/53
f 34/34/54 30/30/54 31/31/54
f 34/34/55 32/32/56 35/35/57
f 36/36/58 9/9/58 33/33/52
f 37/37/59 33/33/60 34/34/61
f 37/37/62 35/35/57 38/38/63
f 26/26/64 13/13/64 39/39/64
f 39/39/65 15/15/21 40/40/66
f 29/29/46 39/39/67 41/41/68
f 41/41/69 40/40/69 42/42/69
f 15/15/28 43/43/70 40/40/71
f 44/44/72 29/29/72 41/41/72
f 44/44/73 42/42/73 45/45/73
f 42/42/74 43/43/75 45/45/76
f 19/19/32 46/46/77 43/43/78
f 47/47/79 32/32/80 44/44/81
f 48/48/82 44/44/82 45/45/82
f 43/43/83 48/48/83 45/45/83
f 22/22/34 49/49/40 46/46/77
f 50/50/84 35/35/85 47/47/79
f 51/51/86 47/47/87 48/48/88
f 46/46/89 51/51/90 48/48/91
f 11/11/13 52/52/92 53/53/93
f 52/52/94 12/12/15 54/54/95
f 52/52/92 55/55/96 53/53/93
f 56/56/97 52/52/94 54/54/95
f 57/57/98 58/58/99 55/55/96
f 59/59/100 57/57/101 56/56/97
f 58/58/102 60/60/102 61/61/102
f 60/60/103 59/59/103 62/62/103
f 63/63/104 60/60/105 62/62/106
f 11/11/107 64/64/108 23/23/36
f 23/23/109 65/65/110 24/24/38
f 25/25/40 65/65/40 66/66/40
f 64/64/108 55/55/111 67/67/112
f 65/65/110 67/67/113 68/68/114
f 65/65/40 69/69/40 66/66/40
f 67/67/112 58/58/115 70/70/112
f 68/68/116 70/70/116 71/71/116
f 68/68/117 72/72/118 69/69/40
f 70/70/119 61/61/120 73/73/121
f 70/70/122 74/74/122 71/71/122
f 75/75/123 61/61/124 63/63/104
f 74/74/125 75/75/126 76/76/127
f 72/72/128 74/74/128 76/76/128
f 54/54/58 36/36/58 77/77/58
f 78/78/129 36/36/130 37/37/59
f 78/78/131 38/38/63 79/79/132
f 56/56/133 77/77/58 80/80/134
f 80/80/135 78/78/129 81/81/136
f 82/82/137 78/78/131 79/79/132
f 59/59/134 80/80/134 83/83/138
f 83/83/139 81/81/139 84/84/139
f 85/85/140 81/81/141 82/82/137
f 62/62/142 83/83/143 86/86/144
f 87/87/145 62/62/106 86/86/146
f 88/88/147 83/83/147 84/84/147
f 87/87/148 88/88/149 89/89/150
f 88/88/151 85/85/151 89/89/151
f 25/25/40 90/90/40 49/49/40
f 79/79/152 50/50/84 91/91/153
f 92/92/154 50/50/155 51/51/86
f 49/49/156 92/92/157 51/51/90
f 90/90/40 69/69/40 93/93/158
f 82/82/159 91/91/153 94/94/160
f 94/94/161 92/92/154 95/95/162
f 92/92/157 93/93/163 95/95/164
f 93/93/158 72/72/118 96/96/158
f 85/85/165 94/94/160 97/97/166
f 97/97/167 95/95/167 98/98/167
f 95/95/168 96/96/168 98/98/168
f 75/75/123 87/87/145 99/99/169
f 76/76/127 99/99/170 100/100/171
f 96/96/172 76/76/173 100/100/174
f 99/99/175 89/89/150 101/101/176
f 89/89/177 97/97/178 101/101/179
f 100/100/180 101/101/180 102/102/181
f 102/102/182 97/97/182 98/98/182
f 96/96/183 102/102/183 98/98/183
f 1/1/1 5/5/184 2/2/2
f 1/1/185 103/103/185 4/4/185
f 6/6/186 103/103/186 1/1/186
f 4/4/187 103/103/187 7/7/187
f 7/7/188 103/103/188 6/6/188
f 8/8/8 7/7/7 10/10/12
f 10/10/14 7/7/9 9/9/11
f 5/5/16 17/17/189 13/13/17
f 13/13/190 17/17/190 14/14/190
f 5/5/22 4/4/191 16/16/23
f 14/14/192 17/17/192 16/16/192
f 14/14/193 18/18/193 19/19/193
f 4/4/29 8/8/35 20/20/29
f 16/16/194 20/20/37 21/21/39
f 19/19/32 18/18/195 21/21/33
f 8/8/35 11/11/107 23/23/36
f 20/20/37 23/23/109 24/24/38
f 22/22/34 21/21/33 24/24/40
f 3/3/41 2/2/196 26/26/42
f 28/28/197 27/27/197 26/26/197
f 30/30/47 6/6/198 3/3/48
f 30/30/199 27/27/199 28/28/199
f 32/32/200 31/31/200 28/28/200
f 33/33/52 9/9/58 6/6/53
f 34/34/61 33/33/60 30/30/201
f 34/34/202 31/31/202 32/32/202
f 36/36/58 12/12/58 9/9/58
f 37/37/59 36/36/130 33/33/60
f 37/37/62 34/34/55 35/35/57
f 26/26/64 2/2/64 13/13/64
f 39/39/65 13/13/19 15/15/21
f 29/29/46 26/26/45 39/39/67
f 41/41/203 39/39/203 40/40/203
f 15/15/28 19/19/27 43/43/70
f 44/44/72 32/32/204 29/29/72
f 44/44/205 41/41/205 42/42/205
f 42/42/74 40/40/206 43/43/75
f 19/19/32 22/22/34 46/46/77
f 47/47/79 35/35/85 32/32/80
f 48/48/88 47/47/87 44/44/207
f 43/43/208 46/46/89 48/48/91
f 22/22/34 25/25/40 49/49/40
f 50/50/84 38/38/84 35/35/85
f 51/51/86 50/50/155 47/47/87
f 46/46/89 49/49/156 51/51/90
f 11/11/13 10/10/12 52/52/92
f 52/52/94 10/10/14 12/12/15
f 52/52/92 57/57/98 55/55/96
f 56/56/97 57/57/101 52/52/94
f 57/57/209 104/104/209 58/58/209
f 59/59/210 104/104/210 57/57/210
f 58/58/211 104/104/211 60/60/211
f 60/60/212 104/104/212 59/59/212
f 63/63/213 61/61/213 60/60/213
f 11/11/107 53/53/108 64/64/108
f 23/23/109 64/64/214 65/65/110
f 25/25/40 24/24/40 65/65/40
f 64/64/108 53/53/108 55/55/111
f 65/65/110 64/64/214 67/67/113
f 65/65/40 68/68/117 69/69/40
f 67/67/112 55/55/111 58/58/115
f 68/68/114 67/67/113 70/70/215
f 68/68/216 71/71/216 72/72/216
f 70/70/119 58/58/217 61/61/120
f 70/70/218 73/73/218 74/74/218
f 75/75/123 73/73/124 61/61/124
f 74/74/125 73/73/219 75/75/126
f 72/72/220 71/71/220 74/74/220
f 54/54/58 12/12/58 36/36/58
f 78/78/129 77/77/221 36/36/130
f 78/78/131 37/37/62 38/38/63
f 56/56/133 54/54/58 77/77/58
f 80/80/135 77/77/221 78/78/129
f 82/82/137 81/81/141 78/78/131
f 59/59/134 56/56/133 80/80/134
f 83/83/222 80/80/135 81/81/136
f 85/85/223 84/84/223 81/81/223
f 62/62/142 59/59/224 83/83/143
f 87/87/145 63/63/104 62/62/106
f 88/88/225 86/86/225 83/83/225
f 87/87/148 86/86/226 88/88/149
f 88/88/227 84/84/227 85/85/227
f 25/25/40 66/66/40 90/90/40
f 79/79/152 38/38/84 50/50/84
f 92/92/154 91/91/228 50/50/155
f 49/49/156 90/90/229 92/92/157
f 90/90/40 66/66/40 69/69/40
f 82/82/159 79/79/152 91/91/153
f 94/94/161 91/91/228 92/92/154
f 92/92/157 90/90/229 93/93/163
f 93/93/158 69/69/40 72/72/118
f 85/85/165 82/82/159 94/94/160
f 97/97/230 94/94/161 95/95/162
f 95/95/164 93/93/163 96/96/231
f 75/75/123 63/63/104 87/87/145
f 76/76/127 75/75/126 99/99/170
f 96/96/172 72/72/232 76/76/173
f 99/99/175 87/87/148 89/89/150
f 89/89/177 85/85/233 97/97/178
f 100/100/180 99/99/234 101/101/180
f 102/102/235 101/101/235 97/97/235
f 96/96/236 100/100/236 102/102/236
