# Blender v2.93.1 OBJ File: ''
# www.blender.org
mtllib untitled17.mtl
o Icosphere_Icosphere.005
v -0.554854 -0.555624 0.555038
v -0.650385 -0.211624 0.650329
v -0.649614 -0.649981 0.211052
v -0.894042 -0.228443 0.228261
v -0.213776 -0.662930 0.661749
v -0.228386 -0.228845 0.894229
v -0.227232 -0.887233 0.226878
v -0.656102 0.246679 0.655937
v -0.539645 0.565157 0.539626
v -0.877817 0.264483 0.225185
v -0.637659 0.667700 0.204918
v -0.224450 0.263289 0.872748
v -0.204360 0.664682 0.634690
v -0.223971 0.900218 0.223834
v -0.644680 -0.644459 -0.243851
v -0.881303 -0.225648 -0.265510
v -0.545520 -0.545207 -0.572039
v -0.639695 -0.205166 -0.669922
v -0.225706 -0.879117 -0.265036
v -0.206986 -0.646351 -0.676731
v -0.223395 -0.223418 -0.896902
v -0.865712 0.264437 -0.264193
v -0.628935 0.661027 -0.242969
v -0.637550 0.245965 -0.669708
v -0.525054 0.559027 -0.558629
v -0.220476 0.886358 -0.265906
v -0.218498 0.263139 -0.874856
v -0.195691 0.653746 -0.653749
v 0.244162 -0.647504 0.646236
v 0.262665 -0.224140 0.869288
v 0.267749 -0.893827 0.227669
v 0.568268 -0.542922 0.542152
v 0.673038 -0.206270 0.642840
v 0.665249 -0.636759 0.204452
v 0.893941 -0.223301 0.222889
v 0.266693 0.266979 0.876730
v 0.245187 0.668905 0.636230
v 0.264082 0.879330 0.219095
v 0.658497 0.242739 0.627301
v 0.567527 0.568252 0.533421
v 0.882466 0.265016 0.219969
v 0.652107 0.652437 0.195402
v 0.267147 -0.881038 -0.267583
v 0.244132 -0.634159 -0.664954
v 0.262031 -0.218267 -0.870429
v 0.658192 -0.628451 -0.242397
v 0.881575 -0.220504 -0.264738
v 0.562142 -0.529669 -0.562235
v 0.661873 -0.198308 -0.661899
v 0.264548 0.868984 -0.264734
v 0.266334 0.265940 -0.876900
v 0.244309 0.653250 -0.653900
v 0.867521 0.263667 -0.264144
v 0.645796 0.645458 -0.242072
v 0.646751 0.241595 -0.646912
v 0.555378 0.554793 -0.555574
vn -0.8031 -0.4801 0.3529
vn -0.4786 -0.3553 0.8029
vn -0.4685 -0.8106 0.3514
vn -0.8662 0.0316 0.4988
vn -0.7863 0.4874 0.3796
vn -0.4483 -0.0165 0.8937
vn -0.3691 0.4877 0.7912
vn -0.4662 0.7984 0.3811
vn -0.8698 -0.4927 -0.0252
vn -0.7924 -0.3610 -0.4917
vn -0.4892 -0.8720 -0.0159
vn -0.3827 -0.7967 -0.4678
vn -0.4586 -0.3608 -0.8121
vn -0.9992 0.0319 -0.0247
vn -0.8578 0.5134 -0.0244
vn -0.8714 0.0044 -0.4905
vn -0.7740 0.4398 -0.4555
vn -0.4841 0.8746 -0.0282
vn -0.4398 0.0025 -0.8981
vn -0.3674 0.4743 -0.8000
vn -0.3692 0.7864 -0.4952
vn 0.0493 -0.4672 0.8828
vn -0.0123 -0.8621 0.5066
vn 0.4591 -0.3827 0.8018
vn 0.5207 -0.7722 0.3641
vn 0.8091 -0.4636 0.3612
vn -0.0080 -0.0151 0.9999
vn -0.0078 0.5131 0.8583
vn 0.0419 0.8676 0.4954
vn 0.5362 -0.0172 0.8439
vn 0.3997 0.4863 0.7770
vn 0.8755 0.0235 0.4827
vn 0.8036 0.4984 0.3252
vn 0.4922 0.8078 0.3243
vn -0.0040 -0.9997 -0.0258
vn 0.0363 -0.8706 -0.4906
vn 0.0535 -0.4442 -0.8943
vn 0.5435 -0.8390 -0.0242
vn 0.8763 -0.4812 -0.0250
vn 0.4116 -0.7632 -0.4980
vn 0.8001 -0.3803 -0.4639
vn 0.4429 -0.3778 -0.8131
vn 0.0358 0.9991 -0.0213
vn -0.0041 -0.0133 -0.9999
vn 0.0003 0.4990 -0.8666
vn 0.0008 0.8746 -0.4849
vn 0.9991 0.0290 -0.0309
vn 0.8641 0.5030 -0.0205
vn 0.5066 0.8619 -0.0211
vn 0.8752 0.0465 -0.4815
vn 0.5165 -0.0160 -0.8561
vn 0.7947 0.3718 -0.4798
vn 0.3983 0.4746 -0.7849
vn 0.3969 0.7939 -0.4607
vn -0.8033 -0.3555 0.4779
vn -0.3919 -0.4446 0.8055
vn -0.3908 -0.8131 0.4315
vn -0.8893 -0.0167 0.4570
vn -0.7892 0.4437 0.4246
vn -0.4987 0.0418 0.8658
vn -0.4161 0.4423 0.7945
vn -0.3715 0.7977 0.4750
vn -0.8653 -0.5011 -0.0155
vn -0.7959 -0.4694 -0.3824
vn -0.4662 -0.7979 -0.3822
vn -0.3825 -0.4383 -0.8134
vn -0.9991 0.0327 -0.0256
vn -0.8594 0.5108 -0.0213
vn -0.8588 0.0287 -0.5116
vn -0.7730 0.4835 -0.4106
vn -0.4891 0.8720 -0.0225
vn -0.4767 0.0446 -0.8779
vn -0.4107 0.4324 -0.8027
vn -0.4588 0.7902 -0.4063
vn 0.0457 -0.4704 0.8813
vn 0.0454 -0.8884 0.4568
vn 0.4002 -0.4408 0.8034
vn 0.4053 -0.7777 0.4805
vn 0.8105 -0.3844 0.4419
vn 0.0503 0.0431 0.9978
vn -0.0108 0.5105 0.8598
vn -0.0099 0.8930 0.4500
vn 0.4811 0.0459 0.8755
vn 0.5155 0.3673 0.7741
vn 0.8849 0.0447 0.4637
vn 0.8090 0.3601 0.4645
vn 0.3910 0.8145 0.4286
vn -0.0133 -0.9998 -0.0165
vn -0.0060 -0.8496 -0.5275
vn 0.0356 -0.4604 -0.8870
vn 0.5420 -0.8401 -0.0224
vn 0.8753 -0.4831 -0.0228
vn 0.5171 -0.7616 -0.3905
vn 0.8014 -0.4598 -0.3827
vn 0.4009 -0.4196 -0.8144
vn 0.0425 0.9987 -0.0280
vn 0.0539 0.0447 -0.9975
vn -0.0065 0.4929 -0.8701
vn 0.0320 0.8580 -0.5126
vn 0.9994 0.0233 -0.0252
vn 0.8600 0.5096 -0.0280
vn 0.5039 0.8636 -0.0180
vn 0.8653 0.0257 -0.5006
vn 0.4601 0.0460 -0.8867
vn 0.7944 0.4827 -0.3687
vn 0.4973 0.3735 -0.7831
vn 0.4863 0.7919 -0.3693
usemtl None
s off
f 1//1 4//1 3//1
f 1//2 6//2 2//2
f 7//3 1//3 3//3
f 2//4 10//4 4//4
f 10//5 9//5 11//5
f 2//6 12//6 8//6
f 9//7 12//7 13//7
f 9//8 14//8 11//8
f 15//9 4//9 16//9
f 17//10 16//10 18//10
f 7//11 15//11 19//11
f 19//12 17//12 20//12
f 21//13 17//13 18//13
f 16//14 10//14 22//14
f 22//15 11//15 23//15
f 18//16 22//16 24//16
f 22//17 25//17 24//17
f 23//18 14//18 26//18
f 27//19 18//19 24//19
f 27//20 25//20 28//20
f 25//21 26//21 28//21
f 6//22 29//22 30//22
f 29//23 7//23 31//23
f 30//24 32//24 33//24
f 32//25 31//25 34//25
f 35//26 32//26 34//26
f 12//27 30//27 36//27
f 13//28 36//28 37//28
f 13//29 38//29 14//29
f 30//30 39//30 36//30
f 36//31 40//31 37//31
f 39//32 35//32 41//32
f 40//33 41//33 42//33
f 38//34 40//34 42//34
f 31//35 19//35 43//35
f 44//36 19//36 20//36
f 44//37 21//37 45//37
f 34//38 43//38 46//38
f 35//39 46//39 47//39
f 48//40 43//40 44//40
f 47//41 48//41 49//41
f 48//42 45//42 49//42
f 26//43 38//43 50//43
f 45//44 27//44 51//44
f 51//45 28//45 52//45
f 28//46 50//46 52//46
f 41//47 47//47 53//47
f 42//48 53//48 54//48
f 50//49 42//49 54//49
f 55//50 47//50 49//50
f 55//51 45//51 51//51
f 56//52 53//52 55//52
f 56//53 51//53 52//53
f 50//54 56//54 52//54
f 1//55 2//55 4//55
f 1//56 5//56 6//56
f 7//57 5//57 1//57
f 2//58 8//58 10//58
f 10//59 8//59 9//59
f 2//60 6//60 12//60
f 9//61 8//61 12//61
f 9//62 13//62 14//62
f 15//63 3//63 4//63
f 17//64 15//64 16//64
f 7//11 3//11 15//11
f 19//65 15//65 17//65
f 21//66 20//66 17//66
f 16//67 4//67 10//67
f 22//68 10//68 11//68
f 18//69 16//69 22//69
f 22//70 23//70 25//70
f 23//71 11//71 14//71
f 27//72 21//72 18//72
f 27//73 24//73 25//73
f 25//74 23//74 26//74
f 6//75 5//75 29//75
f 29//76 5//76 7//76
f 30//77 29//77 32//77
f 32//78 29//78 31//78
f 35//79 33//79 32//79
f 12//80 6//80 30//80
f 13//81 12//81 36//81
f 13//82 37//82 38//82
f 30//83 33//83 39//83
f 36//84 39//84 40//84
f 39//85 33//85 35//85
f 40//86 39//86 41//86
f 38//87 37//87 40//87
f 31//88 7//88 19//88
f 44//89 43//89 19//89
f 44//90 20//90 21//90
f 34//91 31//91 43//91
f 35//92 34//92 46//92
f 48//93 46//93 43//93
f 47//94 46//94 48//94
f 48//95 44//95 45//95
f 26//96 14//96 38//96
f 45//97 21//97 27//97
f 51//98 27//98 28//98
f 28//99 26//99 50//99
f 41//100 35//100 47//100
f 42//101 41//101 53//101
f 50//102 38//102 42//102
f 55//103 53//103 47//103
f 55//104 49//104 45//104
f 56//105 54//105 53//105
f 56//106 55//106 51//106
f 50//107 54//107 56//107
