# Blender v2.93.1 OBJ File: ''
# www.blender.org
mtllib untitled12.mtl
o Sphere_Sphere.001
v -0.684415 -0.088163 0.713267
v -0.685302 -0.717243 0.088251
v -0.869803 -0.340744 0.341640
v -0.267697 -0.219754 0.929170
v -0.263853 -0.933399 0.221824
v -0.298792 -0.670647 0.670621
v -0.911349 0.327465 0.216539
v -0.691157 0.713973 0.065114
v -0.200068 0.357692 0.906957
v -0.062074 0.716081 0.688686
v -0.636504 0.423712 0.638555
v -0.308353 0.892626 0.311808
v -0.629372 -0.648793 -0.415076
v -0.902683 -0.244569 -0.331518
v -0.683584 -0.150993 -0.706566
v -0.184048 -0.910558 -0.358739
v -0.056712 -0.690245 -0.714491
v -0.314250 -0.326813 -0.881703
v -0.890900 0.267407 -0.345848
v -0.611767 0.664756 -0.416347
v -0.677755 0.177383 -0.707750
v -0.191623 0.924060 -0.325486
v -0.304547 0.365668 -0.872576
v -0.045223 0.711704 -0.696077
v 0.350696 -0.654534 0.654364
v 0.325546 -0.230597 0.908211
v 0.326718 -0.911619 0.230999
v 0.702730 -0.150284 0.688174
v 0.704484 -0.688952 0.150803
v 0.874574 -0.332053 0.332456
v 0.349751 0.281859 0.885425
v 0.411992 0.660514 0.619024
v 0.332944 0.909379 0.232649
v 0.705807 0.184094 0.679492
v 0.868390 0.367379 0.315554
v 0.693123 0.705659 0.142337
v 0.352446 -0.884437 -0.282658
v 0.411704 -0.617956 -0.659352
v 0.321582 -0.228089 -0.910373
v 0.704791 -0.676744 -0.183542
v 0.867083 -0.313664 -0.368085
v 0.686684 -0.139282 -0.705620
v 0.413156 0.639542 -0.638861
v 0.346692 0.896874 -0.253333
v 0.316189 0.264033 -0.900837
v 0.859100 0.354801 -0.356573
v 0.691852 0.696850 -0.169481
v 0.686064 0.173565 -0.701432
vn -0.6284 -0.6222 0.4669
vn -0.6278 -0.4615 0.6268
vn -0.9012 0.0250 0.4326
vn -0.4973 0.1707 0.8506
vn -0.4061 0.6965 0.5916
vn -0.5889 0.6971 0.4090
vn -0.8326 -0.5289 -0.1644
vn -0.4832 -0.8587 -0.1705
vn -0.4036 -0.6027 -0.6884
vn -0.5503 -0.4657 -0.6930
vn -0.9990 0.0219 -0.0387
vn -0.8189 0.5415 -0.1904
vn -0.8601 0.0134 -0.5099
vn -0.4911 0.8547 -0.1683
vn -0.4114 0.0178 -0.9113
vn -0.5460 0.4831 -0.6844
vn -0.3847 0.6316 -0.6731
vn 0.0215 -0.4984 0.8667
vn 0.0239 -0.8619 0.5065
vn 0.6555 -0.5665 0.4993
vn 0.6553 -0.4957 0.5699
vn 0.0449 0.0423 0.9981
vn 0.1841 0.5452 0.8179
vn 0.0267 0.9118 0.4097
vn 0.5042 0.0178 0.8634
vn 0.9095 0.0181 0.4154
vn 0.6785 0.4881 0.5489
vn 0.5257 0.7601 0.3820
vn 0.0556 -0.9972 -0.0500
vn 0.1902 -0.8153 -0.5469
vn 0.0217 -0.4051 -0.9140
vn 0.5140 -0.8572 -0.0308
vn 0.9088 -0.4167 -0.0207
vn 0.6787 -0.5505 -0.4861
vn 0.5212 -0.3736 -0.7673
vn 0.0537 0.9983 -0.0242
vn -0.0432 0.0138 -0.9990
vn 0.1866 0.5292 -0.8277
vn 0.1958 0.8309 -0.5208
vn 0.9998 0.0122 -0.0140
vn 0.8936 0.4483 -0.0207
vn 0.5301 0.7446 -0.4056
vn 0.5060 0.8621 -0.0264
vn 0.8836 0.0080 -0.4681
vn 0.4769 0.0127 -0.8789
vn 0.5088 0.4003 -0.7621
vn -0.5155 -0.7564 0.4027
vn -0.5180 -0.3983 0.7570
vn -0.8437 0.1540 0.5143
vn -0.4369 0.0856 0.8954
vn -0.3601 0.5825 0.7288
vn -0.7449 0.5640 0.3565
vn -0.9024 -0.4305 -0.0174
vn -0.4305 -0.8977 -0.0945
vn -0.3566 -0.7317 -0.5808
vn -0.7471 -0.3946 -0.5349
vn -0.9977 -0.0544 0.0410
vn -0.8794 0.4689 -0.0820
vn -0.8641 0.0058 -0.5033
vn -0.4070 0.9129 -0.0295
vn -0.4268 0.0043 -0.9043
vn -0.7326 0.4196 -0.5359
vn -0.3413 0.7510 -0.5652
vn 0.0342 -0.5119 0.8583
vn 0.0342 -0.8551 0.5173
vn 0.5254 -0.7402 0.4197
vn 0.5228 -0.4149 0.7447
vn 0.0359 0.0342 0.9988
vn 0.1013 0.4887 0.8665
vn 0.1735 0.8437 0.5079
vn 0.5015 0.0148 0.8650
vn 0.9010 0.0030 0.4338
vn 0.5378 0.4242 0.7286
vn 0.6752 0.5819 0.4533
vn 0.0374 -0.9987 -0.0342
vn 0.1120 -0.8623 -0.4939
vn 0.1772 -0.5035 -0.8456
vn 0.5045 -0.8632 -0.0204
vn 0.9055 -0.4241 -0.0147
vn 0.5454 -0.7223 -0.4252
vn 0.6742 -0.4443 -0.5899
vn -0.0205 0.9988 0.0455
vn -0.0480 0.0188 -0.9987
vn 0.0304 0.4360 -0.8994
vn 0.1064 0.8803 -0.4624
vn 0.9999 0.0086 -0.0105
vn 0.8912 0.4533 -0.0164
vn 0.6666 0.5812 -0.4667
vn 0.4907 0.8713 -0.0085
vn 0.8897 0.0185 -0.4561
vn 0.4849 0.0223 -0.8743
vn 0.6663 0.4682 -0.5804
usemtl None
s off
f 2//1 6//1 3//1
f 6//2 1//2 3//2
f 1//3 7//3 3//3
f 1//4 9//4 11//4
f 11//5 10//5 12//5
f 8//6 11//6 12//6
f 2//7 14//7 13//7
f 16//8 2//8 13//8
f 17//9 13//9 18//9
f 13//10 15//10 18//10
f 14//11 7//11 19//11
f 19//12 8//12 20//12
f 15//13 19//13 21//13
f 8//14 22//14 20//14
f 18//15 21//15 23//15
f 21//16 20//16 23//16
f 20//17 24//17 23//17
f 6//18 26//18 4//18
f 27//19 6//19 5//19
f 25//20 29//20 30//20
f 28//21 25//21 30//21
f 9//22 26//22 31//22
f 10//23 31//23 32//23
f 10//24 33//24 12//24
f 31//25 28//25 34//25
f 34//26 30//26 35//26
f 32//27 34//27 35//27
f 32//28 36//28 33//28
f 27//29 16//29 37//29
f 37//30 17//30 38//30
f 39//31 17//31 18//31
f 29//32 37//32 40//32
f 30//33 40//33 41//33
f 40//34 38//34 41//34
f 42//35 38//35 39//35
f 22//36 33//36 44//36
f 45//37 18//37 23//37
f 45//38 24//38 43//38
f 24//39 44//39 43//39
f 35//40 41//40 46//40
f 47//41 35//41 46//41
f 47//42 43//42 44//42
f 44//43 36//43 47//43
f 48//44 41//44 42//44
f 42//45 45//45 48//45
f 43//46 48//46 45//46
f 2//47 5//47 6//47
f 6//48 4//48 1//48
f 1//49 11//49 7//49
f 1//50 4//50 9//50
f 11//51 9//51 10//51
f 8//52 7//52 11//52
f 2//53 3//53 14//53
f 16//54 5//54 2//54
f 17//55 16//55 13//55
f 13//56 14//56 15//56
f 14//57 3//57 7//57
f 19//58 7//58 8//58
f 15//59 14//59 19//59
f 8//60 12//60 22//60
f 18//61 15//61 21//61
f 21//62 19//62 20//62
f 20//63 22//63 24//63
f 6//64 25//64 26//64
f 27//65 25//65 6//65
f 25//66 27//66 29//66
f 28//67 26//67 25//67
f 9//68 4//68 26//68
f 10//69 9//69 31//69
f 10//70 32//70 33//70
f 31//71 26//71 28//71
f 34//72 28//72 30//72
f 32//73 31//73 34//73
f 32//74 35//74 36//74
f 27//75 5//75 16//75
f 37//76 16//76 17//76
f 39//77 38//77 17//77
f 29//78 27//78 37//78
f 30//79 29//79 40//79
f 40//80 37//80 38//80
f 42//81 41//81 38//81
f 22//82 12//82 33//82
f 45//83 39//83 18//83
f 45//84 23//84 24//84
f 24//85 22//85 44//85
f 35//86 30//86 41//86
f 47//87 36//87 35//87
f 47//88 46//88 43//88
f 44//89 33//89 36//89
f 48//90 46//90 41//90
f 42//91 39//91 45//91
f 43//92 46//92 48//92
