# Blender v2.93.1 OBJ File: ''
# www.blender.org
mtllib untitled14.mtl
o Icosphere_Icosphere.002
v -0.656785 -0.088779 0.680341
v -0.654296 -0.682026 0.088271
v -0.821938 -0.324670 0.326299
v -0.261932 -0.214439 0.884017
v -0.255077 -0.880721 0.214080
v -0.285775 -0.639257 0.639226
v -0.862910 0.317049 0.212164
v -0.653998 0.675111 0.068515
v -0.201041 0.347498 0.864405
v -0.068916 0.682612 0.655156
v -0.614778 0.409942 0.613973
v -0.305126 0.863283 0.305597
v -0.604506 -0.621645 -0.400442
v -0.858115 -0.235659 -0.316706
v -0.650216 -0.146598 -0.671545
v -0.184524 -0.873163 -0.347536
v -0.061324 -0.654492 -0.676597
v -0.308494 -0.319289 -0.855193
v -0.847937 0.262763 -0.329403
v -0.588927 0.639343 -0.398668
v -0.651730 0.180641 -0.679821
v -0.190402 0.874683 -0.309607
v -0.296257 0.353515 -0.831660
v -0.051171 0.677751 -0.661904
v 0.338688 -0.627204 0.626401
v 0.307311 -0.221065 0.853460
v 0.316323 -0.887053 0.231766
v 0.672443 -0.148239 0.657171
v 0.670333 -0.656434 0.146529
v 0.830240 -0.317812 0.317157
v 0.334683 0.278358 0.851842
v 0.387618 0.626325 0.586120
v 0.313039 0.862086 0.223830
v 0.664879 0.181942 0.641811
v 0.819568 0.351007 0.299823
v 0.655061 0.668508 0.136372
v 0.342732 -0.867437 -0.283920
v 0.390554 -0.590471 -0.629772
v 0.301570 -0.218475 -0.856228
v 0.667923 -0.643963 -0.183282
v 0.825304 -0.301260 -0.354569
v 0.660156 -0.136338 -0.678997
v 0.389085 0.607465 -0.606028
v 0.325745 0.854159 -0.245721
v 0.299298 0.258794 -0.865484
v 0.809436 0.339168 -0.340849
v 0.653013 0.660493 -0.167072
v 0.649371 0.171505 -0.666899
vn -0.6346 -0.6120 0.4720
vn -0.6344 -0.4732 0.6112
vn -0.9101 0.0156 0.4142
vn -0.4943 0.1555 0.8553
vn -0.3886 0.6848 0.6165
vn -0.6250 0.6835 0.3772
vn -0.8409 -0.5200 -0.1499
vn -0.4930 -0.8560 -0.1560
vn -0.3795 -0.6372 -0.6707
vn -0.5877 -0.4429 -0.6771
vn -0.9994 0.0197 -0.0296
vn -0.8270 0.5400 -0.1565
vn -0.8740 -0.0163 -0.4856
vn -0.4817 0.8661 -0.1334
vn -0.4086 0.0393 -0.9119
vn -0.5335 0.4939 -0.6866
vn -0.3753 0.6365 -0.6738
vn 0.0406 -0.5006 0.8647
vn -0.0263 -0.8342 0.5508
vn 0.6640 -0.5621 0.4931
vn 0.6642 -0.4986 0.5569
vn 0.0237 0.0019 0.9997
vn 0.1912 0.5772 0.7939
vn 0.0582 0.9024 0.4270
vn 0.5310 -0.0264 0.8469
vn 0.9061 0.0254 0.4224
vn 0.6766 0.4909 0.5488
vn 0.5272 0.7577 0.3846
vn 0.0153 -0.9992 -0.0372
vn 0.1728 -0.7803 -0.6010
vn 0.0693 -0.4288 -0.9007
vn 0.5734 -0.8185 -0.0351
vn 0.9054 -0.4243 -0.0171
vn 0.6761 -0.5535 -0.4863
vn 0.4784 -0.3703 -0.7963
vn 0.0417 0.9990 -0.0157
vn -0.0598 -0.0196 -0.9980
vn 0.1913 0.5538 -0.8104
vn 0.1989 0.8246 -0.5296
vn 0.9996 0.0251 -0.0163
vn 0.8941 0.4474 -0.0224
vn 0.5354 0.7378 -0.4110
vn 0.5137 0.8575 -0.0261
vn 0.8999 0.0486 -0.4334
vn 0.4906 -0.0146 -0.8713
vn 0.5249 0.4170 -0.7420
vn -0.5062 -0.7651 0.3980
vn -0.5177 -0.4052 0.7536
vn -0.8566 0.1383 0.4970
vn -0.4371 0.0786 0.8960
vn -0.3503 0.5916 0.7262
vn -0.7509 0.5711 0.3316
vn -0.9071 -0.4208 -0.0072
vn -0.4279 -0.9014 -0.0659
vn -0.3512 -0.7139 -0.6059
vn -0.7539 -0.3789 -0.5368
vn -0.9973 -0.0551 0.0485
vn -0.8738 0.4808 -0.0724
vn -0.8633 0.0048 -0.5046
vn -0.4390 0.8961 -0.0653
vn -0.4828 -0.0244 -0.8754
vn -0.7470 0.4188 -0.5164
vn -0.3269 0.7640 -0.5563
vn 0.0273 -0.4862 0.8734
vn 0.0269 -0.8684 0.4952
vn 0.5630 -0.7046 0.4320
vn 0.4949 -0.3946 0.7742
vn 0.0539 0.0290 0.9981
vn 0.0851 0.5034 0.8599
vn 0.1808 0.8409 0.5100
vn 0.4648 0.0518 0.8839
vn 0.9138 0.0397 0.4043
vn 0.5697 0.4423 0.6927
vn 0.6731 0.5830 0.4550
vn -0.0106 -0.9998 -0.0148
vn 0.0734 -0.8431 -0.5328
vn 0.1579 -0.4856 -0.8598
vn 0.5452 -0.8383 -0.0040
vn 0.9083 -0.4176 -0.0224
vn 0.5962 -0.6649 -0.4500
vn 0.6730 -0.4621 -0.5775
vn 0.0045 0.9998 0.0194
vn -0.0075 0.0351 -0.9994
vn 0.0211 0.4512 -0.8922
vn 0.0918 0.8842 -0.4580
vn 0.9999 0.0158 -0.0070
vn 0.8915 0.4527 -0.0180
vn 0.6662 0.5787 -0.4704
vn 0.4923 0.8704 -0.0014
vn 0.8906 0.0318 -0.4536
vn 0.4332 0.0505 -0.8999
vn 0.6662 0.4777 -0.5727
usemtl None
s off
f 2//1 6//1 3//1
f 6//2 1//2 3//2
f 1//3 7//3 3//3
f 1//4 9//4 11//4
f 11//5 10//5 12//5
f 8//6 11//6 12//6
f 2//7 14//7 13//7
f 16//8 2//8 13//8
f 17//9 13//9 18//9
f 13//10 15//10 18//10
f 14//11 7//11 19//11
f 19//12 8//12 20//12
f 15//13 19//13 21//13
f 8//14 22//14 20//14
f 18//15 21//15 23//15
f 21//16 20//16 23//16
f 20//17 24//17 23//17
f 6//18 26//18 4//18
f 25//19 5//19 27//19
f 25//20 29//20 30//20
f 28//21 25//21 30//21
f 9//22 26//22 31//22
f 10//23 31//23 32//23
f 10//24 33//24 12//24
f 26//25 34//25 31//25
f 34//26 30//26 35//26
f 32//27 34//27 35//27
f 32//28 36//28 33//28
f 27//29 16//29 37//29
f 37//30 17//30 38//30
f 39//31 17//31 18//31
f 29//32 37//32 40//32
f 30//33 40//33 41//33
f 40//34 38//34 41//34
f 42//35 38//35 39//35
f 22//36 33//36 44//36
f 39//37 23//37 45//37
f 45//38 24//38 43//38
f 24//39 44//39 43//39
f 35//40 41//40 46//40
f 47//41 35//41 46//41
f 47//42 43//42 44//42
f 44//43 36//43 47//43
f 48//44 41//44 42//44
f 48//45 39//45 45//45
f 43//46 48//46 45//46
f 2//47 5//47 6//47
f 6//48 4//48 1//48
f 1//49 11//49 7//49
f 1//50 4//50 9//50
f 11//51 9//51 10//51
f 8//52 7//52 11//52
f 2//53 3//53 14//53
f 16//54 5//54 2//54
f 17//55 16//55 13//55
f 13//56 14//56 15//56
f 14//57 3//57 7//57
f 19//58 7//58 8//58
f 15//59 14//59 19//59
f 8//60 12//60 22//60
f 18//61 15//61 21//61
f 21//62 19//62 20//62
f 20//63 22//63 24//63
f 6//64 25//64 26//64
f 25//65 6//65 5//65
f 25//66 27//66 29//66
f 28//67 26//67 25//67
f 9//68 4//68 26//68
f 10//69 9//69 31//69
f 10//70 32//70 33//70
f 26//71 28//71 34//71
f 34//72 28//72 30//72
f 32//73 31//73 34//73
f 32//74 35//74 36//74
f 27//75 5//75 16//75
f 37//76 16//76 17//76
f 39//77 38//77 17//77
f 29//78 27//78 37//78
f 30//79 29//79 40//79
f 40//80 37//80 38//80
f 42//81 41//81 38//81
f 22//82 12//82 33//82
f 39//83 18//83 23//83
f 45//84 23//84 24//84
f 24//85 22//85 44//85
f 35//86 30//86 41//86
f 47//87 36//87 35//87
f 47//88 46//88 43//88
f 44//89 33//89 36//89
f 48//90 46//90 41//90
f 48//91 42//91 39//91
f 43//92 46//92 48//92
