# Blender v2.93.1 OBJ File: ''
# www.blender.org
mtllib untitled16.mtl
o Icosphere_Icosphere.005
v -0.826123 -0.063616 0.458620
v -0.847878 -0.475475 0.063142
v -0.905589 -0.214102 0.211983
v -0.422327 -0.037201 0.855819
v -0.614129 -0.174244 0.711273
v -0.437682 -0.867114 0.036814
v -0.612339 -0.704324 0.172332
v -0.678101 -0.509414 0.514000
v -0.157637 -0.110492 0.929302
v -0.246726 -0.645160 0.657733
v -0.220744 -0.395435 0.866552
v -0.168857 -0.926635 0.116236
v -0.235830 -0.848162 0.397877
v -0.915901 0.173393 0.126842
v -0.869454 0.427204 0.038031
v -0.638257 0.262211 0.660929
v -0.512330 0.603605 0.518900
v -0.389803 0.796408 0.393159
v -0.829011 0.258462 0.394341
v -0.707856 0.595834 0.196195
v -0.447075 0.833904 0.154623
v -0.107233 0.203189 0.920161
v -0.017569 0.430407 0.847927
v -0.370446 0.268279 0.825566
v -0.176963 0.611043 0.717212
v -0.130928 0.826282 0.437313
v -0.146362 0.932303 0.153518
v -0.816248 -0.394063 -0.271699
v -0.931610 -0.146803 -0.193406
v -0.836945 -0.079216 -0.437402
v -0.377609 -0.815433 -0.279122
v -0.629881 -0.650453 -0.292214
v -0.475285 -0.478027 -0.682866
v -0.690172 -0.168164 -0.611341
v -0.466057 -0.049303 -0.840629
v -0.118837 -0.920681 -0.209211
v -0.044373 -0.852208 -0.454926
v -0.170561 -0.695237 -0.635778
v -0.046755 -0.460166 -0.839127
v -0.197577 -0.202728 -0.905111
v -0.920957 0.148853 -0.201297
v -0.822315 0.395912 -0.254842
v -0.840722 0.111991 -0.432952
v -0.658099 0.646793 -0.201634
v -0.436812 0.841768 -0.167119
v -0.705757 0.270555 -0.587554
v -0.514170 0.615260 -0.503817
v -0.384528 0.799010 -0.392287
v -0.145110 0.927179 -0.168444
v -0.401732 0.269731 -0.815072
v -0.184127 0.611502 -0.714042
v -0.127395 0.825223 -0.439914
v -0.116346 0.184511 -0.921308
v -0.013817 0.426056 -0.849408
v 0.234628 -0.402713 0.842599
v 0.195294 -0.117163 0.911123
v 0.151179 -0.834074 0.420671
v 0.183609 -0.655480 0.654333
v 0.167149 -0.933156 0.143565
v 0.455284 -0.089608 0.832046
v 0.395038 -0.800871 0.385636
v 0.513895 -0.615955 0.500553
v 0.654849 -0.258379 0.646818
v 0.442512 -0.837358 0.145129
v 0.661445 -0.650950 0.175750
v 0.833270 -0.091466 0.443084
v 0.835338 -0.394493 0.208377
v 0.925572 -0.107931 0.175678
v 0.215403 0.164885 0.907982
v 0.303577 0.414126 0.842904
v 0.284375 0.633160 0.649102
v 0.262324 0.832429 0.401189
v 0.197119 0.915852 0.131791
v 0.453705 0.106387 0.837466
v 0.629056 0.198552 0.687680
v 0.690987 0.507458 0.498299
v 0.609818 0.702692 0.189478
v 0.440546 0.857077 0.083405
v 0.811666 0.122913 0.458829
v 0.889535 0.257230 0.210759
v 0.821506 0.495162 0.103064
v 0.183894 -0.918617 -0.180566
v 0.194705 -0.817112 -0.429909
v 0.217043 -0.658642 -0.638109
v 0.277141 -0.413705 -0.826829
v 0.198602 -0.142575 -0.905471
v 0.445107 -0.835360 -0.168524
v 0.655282 -0.649032 -0.195989
v 0.830961 -0.388228 -0.229225
v 0.402847 -0.792142 -0.392131
v 0.513765 -0.613788 -0.502805
v 0.653007 -0.253790 -0.650141
v 0.451444 -0.098239 -0.831729
v 0.926578 -0.100631 -0.193490
v 0.829389 -0.081023 -0.451504
v 0.259953 0.830827 -0.406241
v 0.194500 0.913254 -0.146065
v 0.303131 0.407616 -0.845239
v 0.284308 0.631301 -0.650642
v 0.214908 0.148791 -0.909893
v 0.690136 0.504188 -0.501028
v 0.605744 0.703525 -0.200756
v 0.437000 0.855477 -0.096976
v 0.624663 0.195635 -0.694337
v 0.447735 0.093754 -0.839597
v 0.884538 0.257896 -0.222942
v 0.815791 0.497673 -0.115344
v 0.804253 0.126729 -0.465980
vn -0.8793 -0.3670 0.3035
vn -0.8732 -0.2370 0.4259
vn -0.5111 -0.3615 0.7798
vn -0.4698 -0.2389 0.8498
vn -0.4999 -0.8041 0.3217
vn -0.5099 -0.7858 0.3501
vn -0.9576 0.0373 0.2858
vn -0.6258 0.0552 0.7781
vn -0.8092 0.1080 0.5775
vn -0.7364 0.5192 0.4337
vn -0.8159 0.4812 0.3205
vn -0.6266 0.7327 0.2656
vn -0.3028 0.1447 0.9420
vn -0.2465 0.4159 0.8754
vn -0.4516 0.4905 0.7453
vn -0.1902 0.7931 0.5786
vn -0.3028 0.9277 0.2185
vn -0.9122 -0.3699 -0.1761
vn -0.5237 -0.8193 -0.2336
vn -0.7984 -0.5634 -0.2124
vn -0.7457 -0.3929 -0.5381
vn -0.7984 -0.3207 -0.5097
vn -0.3186 -0.9239 -0.2117
vn -0.3384 -0.8147 -0.4710
vn -0.4467 -0.7367 -0.5076
vn -0.2996 -0.3978 -0.8672
vn -0.3864 -0.3112 -0.8683
vn -0.9993 0.0363 0.0127
vn -0.9259 0.3297 -0.1843
vn -0.9454 -0.0111 -0.3257
vn -0.8026 0.5656 -0.1896
vn -0.6608 0.7505 -0.0027
vn -0.7576 0.0085 -0.6527
vn -0.8513 0.3173 -0.4178
vn -0.7298 0.5149 -0.4497
vn -0.6360 0.6753 -0.3734
vn -0.5889 0.1818 -0.7875
vn -0.2810 0.9596 -0.0164
vn -0.4587 0.5077 -0.7293
vn -0.1882 0.7931 -0.5794
vn -0.1598 0.9206 -0.3562
vn -0.3092 0.1377 -0.9410
vn -0.2271 0.3651 -0.9028
vn 0.0458 -0.2271 0.9728
vn -0.0142 -0.7935 0.6084
vn -0.0093 -0.6409 0.7676
vn -0.0454 -0.9415 0.3340
vn 0.3826 -0.6525 0.6541
vn 0.5007 -0.4894 0.7140
vn 0.4877 -0.3163 0.8137
vn 0.3207 -0.9250 0.2036
vn 0.6108 -0.7560 0.2353
vn 0.7367 -0.5496 0.3939
vn 0.9106 -0.2491 0.3297
vn 0.0387 0.0084 0.9992
vn 0.0275 0.2434 0.9695
vn 0.0835 0.6315 0.7708
vn 0.0451 0.7806 0.6234
vn 0.0667 0.9359 0.3460
vn 0.2816 -0.0094 0.9595
vn 0.6667 -0.0290 0.7447
vn 0.5479 0.2532 0.7973
vn 0.4341 0.6180 0.6554
vn 0.5106 0.7810 0.3595
vn 0.2706 0.9362 0.2244
vn 0.7866 0.0340 0.6165
vn 0.9423 0.0614 0.3290
vn 0.8835 0.2357 0.4049
vn 0.7272 0.6502 0.2199
vn 0.0110 -0.9990 -0.0442
vn 0.1725 -0.9149 -0.3650
vn 0.0649 -0.7308 -0.6795
vn 0.1189 -0.6241 -0.7722
vn 0.0340 -0.2294 -0.9727
vn 0.3038 -0.9527 -0.0036
vn 0.6634 -0.7482 0.0007
vn 0.1759 -0.9144 -0.3646
vn 0.6615 -0.6469 -0.3794
vn 0.3947 -0.6490 -0.6504
vn 0.7434 -0.4787 -0.4672
vn 0.5327 -0.4888 -0.6909
vn 0.3047 -0.1829 -0.9347
vn 0.8283 -0.5600 -0.0163
vn 0.9491 -0.3151 -0.0036
vn 0.8296 -0.3245 -0.4544
vn 0.0420 0.9990 -0.0157
vn 0.0435 0.7760 -0.6292
vn 0.0122 0.9541 -0.2992
vn 0.0326 -0.0170 -0.9993
vn 0.0264 0.2338 -0.9719
vn 0.0482 0.6579 -0.7516
vn 0.6623 0.7490 -0.0197
vn 0.2692 0.9355 -0.2287
vn 0.2339 0.9722 -0.0113
vn 0.4352 0.6115 -0.6608
vn 0.4270 0.7208 -0.5459
vn 0.6410 -0.0191 -0.7673
vn 0.2823 -0.0304 -0.9588
vn 0.3142 0.1279 -0.9407
vn 0.9932 0.1155 -0.0113
vn 0.9584 0.2846 -0.0218
vn 0.7272 0.6482 -0.2260
vn 0.7011 0.7130 -0.0058
vn 0.9343 0.0890 -0.3452
vn 0.7927 0.0536 -0.6072
vn 0.7988 0.1884 -0.5713
vn -0.7307 -0.6439 0.2267
vn -0.7915 -0.1907 0.5806
vn -0.4150 -0.5578 0.7187
vn -0.3009 -0.1411 0.9432
vn -0.2675 -0.9428 0.1991
vn -0.4119 -0.7264 0.5502
vn -0.9545 0.0501 0.2941
vn -0.5188 0.1711 0.8376
vn -0.7584 0.0332 0.6509
vn -0.7184 0.4760 0.5073
vn -0.9412 0.2513 0.2258
vn -0.6499 0.6594 0.3779
vn -0.2493 0.0682 0.9660
vn -0.2296 0.3760 0.8977
vn -0.4670 0.4810 0.7420
vn -0.3914 0.6641 0.6370
vn -0.1665 0.9207 0.3530
vn -0.9732 -0.2288 0.0245
vn -0.7035 -0.7085 -0.0556
vn -0.6815 -0.7295 -0.0589
vn -0.7198 -0.4834 -0.4982
vn -0.8684 -0.2744 -0.4129
vn -0.2021 -0.9781 -0.0490
vn -0.2760 -0.9010 -0.3347
vn -0.4543 -0.7346 -0.5040
vn -0.2667 -0.5463 -0.7940
vn -0.6201 -0.2591 -0.7405
vn -0.9980 -0.0130 0.0619
vn -0.9836 0.1806 0.0017
vn -0.9343 0.0242 -0.3558
vn -0.7213 0.6926 -0.0015
vn -0.6733 0.7393 0.0105
vn -0.7643 -0.0001 -0.6449
vn -0.8926 0.2797 -0.3537
vn -0.7241 0.5595 -0.4033
vn -0.6091 0.7412 -0.2822
vn -0.7182 0.0122 -0.6957
vn -0.3109 0.9503 0.0133
vn -0.5292 0.4663 -0.7089
vn -0.3962 0.6643 -0.6339
vn -0.2738 0.9313 -0.2404
vn -0.2295 0.0074 -0.9733
vn -0.2448 0.4149 -0.8763
vn 0.0476 -0.2249 0.9732
vn -0.0076 -0.7882 0.6154
vn 0.0324 -0.6012 0.7984
vn 0.0190 -0.9620 0.2725
vn 0.1911 -0.7925 0.5792
vn 0.3959 -0.5986 0.6964
vn 0.3038 -0.1826 0.9351
vn 0.1747 -0.9239 0.3404
vn 0.6597 -0.6541 0.3702
vn 0.7475 -0.4817 0.4573
vn 0.8277 -0.3400 0.4463
vn 0.0518 0.0208 0.9984
vn 0.0691 0.2774 0.9583
vn 0.0453 0.6642 0.7462
vn 0.0529 0.7874 0.6142
vn 0.0120 0.9560 0.2931
vn 0.2932 -0.0241 0.9557
vn 0.6542 -0.0156 0.7562
vn 0.3115 0.1354 0.9405
vn 0.5784 0.3390 0.7420
vn 0.4253 0.7235 0.5437
vn 0.5054 0.7910 0.3448
vn 0.7584 -0.0155 0.6516
vn 0.9442 0.0715 0.3215
vn 0.7971 0.1913 0.5728
vn 0.8823 0.3788 0.2796
vn -0.0177 -0.9996 -0.0210
vn 0.0311 -0.9652 -0.2595
vn 0.1774 -0.7922 -0.5839
vn 0.0589 -0.6707 -0.7394
vn 0.0736 -0.2581 -0.9633
vn 0.3286 -0.9441 -0.0254
vn 0.6494 -0.7603 -0.0147
vn 0.3050 -0.9227 -0.2360
vn 0.6212 -0.7391 -0.2603
vn 0.2000 -0.7899 -0.5797
vn 0.7350 -0.5463 -0.4018
vn 0.4014 -0.6188 -0.6753
vn 0.5058 -0.2921 -0.8117
vn 0.8285 -0.5597 -0.0166
vn 0.9533 -0.3018 -0.0139
vn 0.8985 -0.2543 -0.3578
vn 0.0472 0.9988 -0.0098
vn 0.0509 0.7825 -0.6206
vn 0.0613 0.9357 -0.3474
vn 0.0056 -0.0430 -0.9991
vn 0.0613 0.2608 -0.9635
vn 0.0775 0.6332 -0.7701
vn 0.6757 0.7371 -0.0055
vn 0.4994 0.7930 -0.3491
vn 0.2322 0.9726 -0.0132
vn 0.5749 0.3433 -0.7427
vn 0.5076 0.7767 -0.3730
vn 0.6548 -0.0330 -0.7551
vn 0.2853 -0.0337 -0.9579
vn 0.5342 0.2315 -0.8130
vn 0.9952 0.0978 0.0046
vn 0.9627 0.2704 -0.0107
vn 0.8818 0.3789 -0.2809
vn 0.6979 0.7161 -0.0100
vn 0.9327 0.0805 -0.3515
vn 0.7549 -0.0169 -0.6556
vn 0.8812 0.2280 -0.4141
usemtl None
s off
f 2//1 8//1 3//1
f 8//2 1//2 3//2
f 8//3 11//3 5//3
f 11//4 4//4 5//4
f 6//5 13//5 7//5
f 13//6 8//6 7//6
f 1//7 14//7 3//7
f 4//8 16//8 5//8
f 1//9 16//9 19//9
f 19//10 17//10 20//10
f 15//11 19//11 20//11
f 20//12 18//12 21//12
f 4//13 22//13 24//13
f 24//14 23//14 25//14
f 17//15 24//15 25//15
f 18//16 25//16 26//16
f 18//17 27//17 21//17
f 2//18 29//18 28//18
f 6//19 32//19 31//19
f 32//20 2//20 28//20
f 33//21 28//21 34//21
f 28//22 30//22 34//22
f 36//23 6//23 31//23
f 37//24 31//24 38//24
f 31//25 33//25 38//25
f 39//26 33//26 40//26
f 33//27 35//27 40//27
f 29//28 14//28 41//28
f 41//29 15//29 42//29
f 30//30 41//30 43//30
f 15//31 44//31 42//31
f 44//32 21//32 45//32
f 34//33 43//33 46//33
f 43//34 42//34 46//34
f 42//35 47//35 46//35
f 44//36 48//36 47//36
f 35//37 46//37 50//37
f 45//38 27//38 49//38
f 50//39 47//39 51//39
f 51//40 48//40 52//40
f 48//41 49//41 52//41
f 53//42 35//42 50//42
f 50//43 54//43 53//43
f 9//44 55//44 56//44
f 10//45 57//45 58//45
f 58//46 11//46 10//46
f 57//47 12//47 59//47
f 58//48 61//48 62//48
f 55//49 62//49 63//49
f 60//50 55//50 63//50
f 61//51 59//51 64//51
f 65//52 61//52 64//52
f 67//53 62//53 65//53
f 66//54 67//54 68//54
f 22//55 56//55 69//55
f 23//56 69//56 70//56
f 23//57 71//57 25//57
f 26//58 71//58 72//58
f 26//59 73//59 27//59
f 56//60 74//60 69//60
f 75//61 60//61 63//61
f 70//62 74//62 75//62
f 70//63 76//63 71//63
f 72//64 76//64 77//64
f 72//65 78//65 73//65
f 75//66 66//66 79//66
f 79//67 68//67 80//67
f 76//68 79//68 80//68
f 76//69 81//69 77//69
f 59//70 36//70 82//70
f 82//71 37//71 83//71
f 84//72 37//72 38//72
f 84//73 39//73 85//73
f 86//74 39//74 40//74
f 64//75 82//75 87//75
f 88//76 64//76 87//76
f 90//77 82//77 83//77
f 88//78 90//78 91//78
f 90//79 84//79 91//79
f 89//80 91//80 92//80
f 91//81 85//81 92//81
f 93//82 85//82 86//82
f 67//83 88//83 89//83
f 68//84 89//84 94//84
f 95//85 89//85 92//85
f 27//86 97//86 49//86
f 99//87 52//87 96//87
f 52//88 97//88 96//88
f 86//89 53//89 100//89
f 100//90 54//90 98//90
f 54//91 99//91 98//91
f 78//92 102//92 103//92
f 103//93 96//93 97//93
f 73//94 103//94 97//94
f 101//95 98//95 99//95
f 96//96 101//96 99//96
f 104//97 93//97 105//97
f 105//98 86//98 100//98
f 98//99 105//99 100//99
f 80//100 94//100 106//100
f 81//101 106//101 107//101
f 107//102 101//102 102//102
f 77//103 107//103 102//103
f 108//104 94//104 95//104
f 95//105 104//105 108//105
f 101//106 108//106 104//106
f 2//107 7//107 8//107
f 8//108 5//108 1//108
f 8//109 10//109 11//109
f 11//110 9//110 4//110
f 6//111 12//111 13//111
f 13//112 10//112 8//112
f 1//113 19//113 14//113
f 4//114 24//114 16//114
f 1//115 5//115 16//115
f 19//116 16//116 17//116
f 15//117 14//117 19//117
f 20//118 17//118 18//118
f 4//119 9//119 22//119
f 24//120 22//120 23//120
f 17//121 16//121 24//121
f 18//122 17//122 25//122
f 18//123 26//123 27//123
f 2//124 3//124 29//124
f 6//125 7//125 32//125
f 32//126 7//126 2//126
f 33//127 32//127 28//127
f 28//128 29//128 30//128
f 36//129 12//129 6//129
f 37//130 36//130 31//130
f 31//131 32//131 33//131
f 39//132 38//132 33//132
f 33//133 34//133 35//133
f 29//134 3//134 14//134
f 41//135 14//135 15//135
f 30//136 29//136 41//136
f 15//137 20//137 44//137
f 44//138 20//138 21//138
f 34//139 30//139 43//139
f 43//140 41//140 42//140
f 42//141 44//141 47//141
f 44//142 45//142 48//142
f 35//143 34//143 46//143
f 45//144 21//144 27//144
f 50//145 46//145 47//145
f 51//146 47//146 48//146
f 48//147 45//147 49//147
f 53//148 40//148 35//148
f 50//149 51//149 54//149
f 9//150 11//150 55//150
f 10//151 13//151 57//151
f 58//152 55//152 11//152
f 57//153 13//153 12//153
f 58//154 57//154 61//154
f 55//155 58//155 62//155
f 60//156 56//156 55//156
f 61//157 57//157 59//157
f 65//158 62//158 61//158
f 67//159 63//159 62//159
f 66//160 63//160 67//160
f 22//161 9//161 56//161
f 23//162 22//162 69//162
f 23//163 70//163 71//163
f 26//164 25//164 71//164
f 26//165 72//165 73//165
f 56//166 60//166 74//166
f 75//167 74//167 60//167
f 70//168 69//168 74//168
f 70//169 75//169 76//169
f 72//170 71//170 76//170
f 72//171 77//171 78//171
f 75//172 63//172 66//172
f 79//173 66//173 68//173
f 76//174 75//174 79//174
f 76//175 80//175 81//175
f 59//176 12//176 36//176
f 82//177 36//177 37//177
f 84//178 83//178 37//178
f 84//179 38//179 39//179
f 86//180 85//180 39//180
f 64//181 59//181 82//181
f 88//182 65//182 64//182
f 90//183 87//183 82//183
f 88//184 87//184 90//184
f 90//185 83//185 84//185
f 89//186 88//186 91//186
f 91//187 84//187 85//187
f 93//188 92//188 85//188
f 67//189 65//189 88//189
f 68//190 67//190 89//190
f 95//191 94//191 89//191
f 27//192 73//192 97//192
f 99//193 51//193 52//193
f 52//194 49//194 97//194
f 86//195 40//195 53//195
f 100//196 53//196 54//196
f 54//197 51//197 99//197
f 78//198 77//198 102//198
f 103//199 102//199 96//199
f 73//200 78//200 103//200
f 101//201 104//201 98//201
f 96//202 102//202 101//202
f 104//203 92//203 93//203
f 105//204 93//204 86//204
f 98//205 104//205 105//205
f 80//206 68//206 94//206
f 81//207 80//207 106//207
f 107//208 106//208 101//208
f 77//209 81//209 107//209
f 108//210 106//210 94//210
f 95//211 92//211 104//211
f 101//212 106//212 108//212
